Comme-Heavy.ufo
<glyph name="quotedbl" format="1">
  <advance width="960"/>
  <unicode hex="0022"/>
  <outline>
    <contour>
      <point x="192" y="862" type="line"/>
      <point x="386" y="862" type="line"/>
      <point x="440" y="1573" type="line"/>
      <point x="77" y="1573" type="line"/>
    </contour>
    <contour>
      <point x="650" y="862" type="line"/>
      <point x="846" y="862" type="line"/>
      <point x="899" y="1573" type="line"/>
      <point x="537" y="1573" type="line"/>
    </contour>
  </outline>
</glyph>
<glyph name="numbersign" format="1">
  <advance width="1082"/>
  <unicode hex="0023"/>
  <outline>
    <contour>
      <point x="144" y="12" type="line"/>
      <point x="354" y="12" type="line"/>
      <point x="423" y="438" type="line"/>
      <point x="598" y="438" type="line"/>
      <point x="526" y="12" type="line"/>
      <point x="739" y="12" type="line"/>
      <point x="813" y="438" type="line"/>
      <point x="938" y="438" type="line"/>
      <point x="955" y="591" type="line"/>
      <point x="839" y="591" type="line"/>
      <point x="886" y="922" type="line"/>
      <point x="1008" y="922" type="line"/>
      <point x="1030" y="1082" type="line"/>
      <point x="912" y="1082" type="line"/>
      <point x="963" y="1417" type="line"/>
      <point x="745" y="1417" type="line"/>
      <point x="699" y="1082" type="line"/>
      <point x="524" y="1082" type="line"/>
      <point x="575" y="1417" type="line"/>
      <point x="363" y="1417" type="line"/>
      <point x="316" y="1082" type="line"/>
      <point x="124" y="1082" type="line"/>
      <point x="102" y="922" type="line"/>
      <point x="291" y="922" type="line"/>
      <point x="241" y="591" type="line"/>
      <point x="85" y="591" type="line"/>
      <point x="63" y="438" type="line"/>
      <point x="214" y="438" type="line"/>
    </contour>
    <contour>
      <point x="453" y="591" type="line"/>
      <point x="500" y="922" type="line"/>
      <point x="672" y="922" type="line"/>
      <point x="621" y="591" type="line"/>
    </contour>
  </outline>
</glyph>
<glyph name="dollar" format="1">
  <advance width="1232"/>
  <unicode hex="0024"/>
  <outline>
    <contour>
      <point x="533" y="-271" type="line"/>
      <point x="733" y="-271" type="line"/>
      <point x="706" y="66" type="line"/>
      <point x="533" y="66" type="line"/>
    </contour>
    <contour>
      <point x="517" y="1440" type="line"/>
      <point x="690" y="1440" type="line"/>
      <point x="690" y="1774" type="line"/>
      <point x="505" y="1774" type="line"/>
    </contour>
    <component base="S"/>
  </outline>
</glyph>
<glyph name="percent" format="1">
  <advance width="2565"/>
  <unicode hex="0025"/>
  <outline>
    <contour>
      <point x="618" y="967" type="curve" smooth="yes"/>
      <point x="523" y="967"/>
      <point x="413" y="1053"/>
      <point x="413" y="1161" type="curve" smooth="yes"/>
      <point x="413" y="1266"/>
      <point x="523" y="1349"/>
      <point x="618" y="1349" type="curve" smooth="yes"/>
      <point x="709" y="1349"/>
      <point x="814" y="1270"/>
      <point x="814" y="1161" type="curve" smooth="yes"/>
      <point x="814" y="1052"/>
      <point x="710" y="967"/>
    </contour>
    <contour>
      <point x="611" y="722" type="curve" smooth="yes"/>
      <point x="872" y="722"/>
      <point x="1096" y="913"/>
      <point x="1096" y="1154" type="curve" smooth="yes"/>
      <point x="1096" y="1398"/>
      <point x="875" y="1583"/>
      <point x="611" y="1583" type="curve" smooth="yes"/>
      <point x="350" y="1583"/>
      <point x="142" y="1395"/>
      <point x="142" y="1154" type="curve" smooth="yes"/>
      <point x="142" y="913"/>
      <point x="346" y="722"/>
    </contour>
    <contour>
      <point x="745" y="0" type="line"/>
      <point x="1052" y="0" type="line"/>
      <point x="1913" y="1563" type="line"/>
      <point x="1614" y="1563" type="line"/>
    </contour>
    <contour>
      <point x="2060" y="190" type="curve" smooth="yes"/>
      <point x="1965" y="190"/>
      <point x="1855" y="276"/>
      <point x="1855" y="382" type="curve" smooth="yes"/>
      <point x="1855" y="487"/>
      <point x="1965" y="571"/>
      <point x="2060" y="571" type="curve" smooth="yes"/>
      <point x="2151" y="571"/>
      <point x="2256" y="491"/>
      <point x="2256" y="382" type="curve" smooth="yes"/>
      <point x="2256" y="277"/>
      <point x="2152" y="190"/>
    </contour>
    <contour>
      <point x="2053" y="-57" type="curve" smooth="yes"/>
      <point x="2314" y="-57"/>
      <point x="2538" y="134"/>
      <point x="2538" y="379" type="curve" smooth="yes"/>
      <point x="2538" y="622"/>
      <point x="2317" y="801"/>
      <point x="2053" y="801" type="curve" smooth="yes"/>
      <point x="1792" y="801"/>
      <point x="1571" y="616"/>
      <point x="1571" y="379" type="curve" smooth="yes"/>
      <point x="1571" y="134"/>
      <point x="1788" y="-57"/>
    </contour>
  </outline>
</glyph>
<glyph name="quotesingle" format="1">
  <advance width="756"/>
  <unicode hex="0027"/>
  <outline>
    <contour>
      <point x="284" y="878" type="line"/>
      <point x="473" y="878" type="line"/>
      <point x="531" y="1583" type="line"/>
      <point x="164" y="1583" type="line"/>
    </contour>
  </outline>
</glyph>
<glyph name="parenright" format="1">
  <advance width="932"/>
  <unicode hex="0029"/>
  <outline>
    <contour>
      <point x="124" y="-331" type="line"/>
      <point x="430" y="-331" type="line"/>
      <point x="569" y="-202"/>
      <point x="726" y="249"/>
      <point x="726" y="633" type="curve" smooth="yes"/>
      <point x="726" y="1017"/>
      <point x="569" y="1469"/>
      <point x="430" y="1598" type="curve"/>
      <point x="124" y="1598" type="line"/>
      <point x="124" y="1556" type="line"/>
      <point x="236" y="1491"/>
      <point x="418" y="1239"/>
      <point x="418" y="633" type="curve" smooth="yes"/>
      <point x="418" y="28"/>
      <point x="236" y="-239"/>
      <point x="124" y="-304" type="curve"/>
    </contour>
  </outline>
</glyph>
<glyph name="asterisk" format="1">
  <advance width="1103"/>
  <unicode hex="002A"/>
  <outline>
    <contour>
      <point x="394" y="414" type="line"/>
      <point x="555" y="745" type="line"/>
      <point x="719" y="410" type="line"/>
      <point x="709" y="404"/>
      <point x="1005" y="574"/>
      <point x="994" y="567" type="curve"/>
      <point x="1018" y="539"/>
      <point x="795" y="836"/>
      <point x="751" y="893" type="curve"/>
      <point x="1102" y="976" type="line"/>
      <point x="1013" y="1281" type="line"/>
      <point x="673" y="1131" type="line"/>
      <point x="703" y="1554" type="line"/>
      <point x="403" y="1554" type="line"/>
      <point x="437" y="1131" type="line"/>
      <point x="98" y="1281" type="line"/>
      <point x="11" y="976" type="line"/>
      <point x="357" y="893" type="line"/>
      <point x="111" y="567" type="line"/>
    </contour>
  </outline>
</glyph>
<glyph name="hyphen" format="1">
  <advance width="1016"/>
  <unicode hex="002D"/>
  <outline>
    <contour>
      <point x="523" y="491" type="move" name="_mid"/>
    </contour>
    <contour>
      <point x="126" y="371" type="line"/>
      <point x="907" y="371" type="line"/>
      <point x="907" y="635" type="line"/>
      <point x="126" y="635" type="line"/>
    </contour>
  </outline>
</glyph>
<glyph name="period" format="1">
  <advance width="790"/>
  <unicode hex="002E"/>
  <outline>
    <contour>
      <point x="382" y="-4" type="curve" smooth="yes"/>
      <point x="490" y="-4"/>
      <point x="590" y="53"/>
      <point x="590" y="179" type="curve" smooth="yes"/>
      <point x="590" y="313"/>
      <point x="490" y="372"/>
      <point x="382" y="372" type="curve" smooth="yes"/>
      <point x="280" y="372"/>
      <point x="177" y="313"/>
      <point x="177" y="179" type="curve" smooth="yes"/>
      <point x="177" y="50"/>
      <point x="282" y="-4"/>
    </contour>
  </outline>
</glyph>
<glyph name="zero" format="1">
  <advance width="1445"/>
  <unicode hex="0030"/>
  <outline>
    <contour>
      <point x="720" y="316" type="curve" smooth="yes"/>
      <point x="627" y="316"/>
      <point x="569" y="506"/>
      <point x="569" y="740" type="curve" smooth="yes"/>
      <point x="575" y="975"/>
      <point x="633" y="1137"/>
      <point x="720" y="1137" type="curve" smooth="yes"/>
      <point x="813" y="1137"/>
      <point x="875" y="965"/>
      <point x="875" y="740" type="curve" smooth="yes"/>
      <point x="875" y="506"/>
      <point x="813" y="316"/>
    </contour>
    <contour>
      <point x="720" y="-20" type="curve" smooth="yes"/>
      <point x="1114" y="-20"/>
      <point x="1392" y="274"/>
      <point x="1392" y="742" type="curve" smooth="yes"/>
      <point x="1392" y="1196"/>
      <point x="1121" y="1476"/>
      <point x="720" y="1476" type="curve" smooth="yes"/>
      <point x="320" y="1476"/>
      <point x="53" y="1196"/>
      <point x="53" y="742" type="curve" smooth="yes"/>
      <point x="53" y="274"/>
      <point x="326" y="-20"/>
    </contour>
  </outline>
</glyph>
<glyph name="one" format="1">
  <advance width="1445"/>
  <unicode hex="0031"/>
  <outline>
    <contour>
      <point x="191" y="0" type="line"/>
      <point x="1368" y="0" type="line"/>
      <point x="1368" y="316" type="line"/>
      <point x="1054" y="316" type="line"/>
      <point x="1054" y="1456" type="line"/>
      <point x="632" y="1456" type="line"/>
      <point x="515" y="1366"/>
      <point x="349" y="1296"/>
      <point x="185" y="1248" type="curve"/>
      <point x="185" y="955" type="line"/>
      <point x="311" y="968"/>
      <point x="446" y="1012"/>
      <point x="552" y="1053" type="curve"/>
      <point x="552" y="316" type="line"/>
      <point x="191" y="316" type="line"/>
    </contour>
  </outline>
</glyph>
<glyph name="two" format="1">
  <advance width="1445"/>
  <unicode hex="0032"/>
  <outline>
    <contour>
      <point x="278" y="0" type="line"/>
      <point x="1258" y="0" type="line"/>
      <point x="1268" y="304" type="line"/>
      <point x="750" y="304" type="line"/>
      <point x="1001" y="540" type="line" smooth="yes"/>
      <point x="1204" y="729"/>
      <point x="1274" y="889"/>
      <point x="1274" y="988" type="curve" smooth="yes"/>
      <point x="1274" y="1180"/>
      <point x="1198" y="1476"/>
      <point x="715" y="1476" type="curve" smooth="yes"/>
      <point x="409" y="1476"/>
      <point x="205" y="1296"/>
      <point x="91" y="1154" type="curve"/>
      <point x="302" y="937" type="line"/>
      <point x="332" y="937" type="line"/>
      <point x="427" y="1055"/>
      <point x="572" y="1143"/>
      <point x="712" y="1143" type="curve" smooth="yes"/>
      <point x="800" y="1143"/>
      <point x="842" y="1072"/>
      <point x="842" y="1001" type="curve" smooth="yes"/>
      <point x="842" y="961"/>
      <point x="811" y="882"/>
      <point x="748" y="821" type="curve" smooth="yes"/>
      <point x="206" y="286" type="line"/>
    </contour>
  </outline>
</glyph>
<glyph name="four" format="1">
  <advance width="1445"/>
  <unicode hex="0034"/>
  <outline>
    <contour>
      <point x="655" y="0" type="line"/>
      <point x="1145" y="0" type="line"/>
      <point x="1145" y="299" type="line"/>
      <point x="1368" y="299" type="line"/>
      <point x="1385" y="588" type="line"/>
      <point x="1145" y="588" type="line"/>
      <point x="1145" y="1456" type="line"/>
      <point x="565" y="1456" type="line"/>
      <point x="69" y="556" type="line"/>
      <point x="72" y="299" type="line"/>
      <point x="655" y="299" type="line"/>
    </contour>
    <contour>
      <point x="399" y="579" type="line"/>
      <point x="653" y="1046" type="line"/>
      <point x="653" y="579" type="line"/>
    </contour>
  </outline>
</glyph>
<glyph name="five" format="1">
  <advance width="1414"/>
  <unicode hex="0035"/>
  <outline>
    <contour>
      <point x="357" y="427" type="line"/>
      <point x="165" y="212" type="line"/>
      <point x="281" y="43"/>
      <point x="440" y="-20"/>
      <point x="715" y="-20" type="curve" smooth="yes"/>
      <point x="1047" y="-20"/>
      <point x="1237" y="204"/>
      <point x="1237" y="489" type="curve" smooth="yes"/>
      <point x="1237" y="716"/>
      <point x="1102" y="964"/>
      <point x="765" y="964" type="curve" smooth="yes"/>
      <point x="648" y="964"/>
      <point x="581" y="933"/>
      <point x="522" y="871" type="curve"/>
      <point x="545" y="842" type="line"/>
      <point x="595" y="1187" type="line"/>
      <point x="1138" y="1187" type="line"/>
      <point x="1176" y="1456" type="line"/>
      <point x="286" y="1456" type="line"/>
      <point x="217" y="627" type="line"/>
      <point x="512" y="579" type="line"/>
      <point x="521" y="661"/>
      <point x="572" y="699"/>
      <point x="689" y="700" type="curve" smooth="yes"/>
      <point x="795" y="701"/>
      <point x="858" y="612"/>
      <point x="860" y="519" type="curve" smooth="yes"/>
      <point x="863" y="359"/>
      <point x="796" y="283"/>
      <point x="662" y="283" type="curve" smooth="yes"/>
      <point x="574" y="283"/>
      <point x="437" y="316"/>
      <point x="379" y="427" type="curve"/>
    </contour>
  </outline>
</glyph>
<glyph name="six" format="1">
  <advance width="1445"/>
  <unicode hex="0036"/>
  <outline>
    <contour>
      <point x="705" y="-20" type="curve" smooth="yes"/>
      <point x="1086" y="-20"/>
      <point x="1307" y="162"/>
      <point x="1307" y="450" type="curve" smooth="yes"/>
      <point x="1307" y="794"/>
      <point x="1046" y="902"/>
      <point x="850" y="902" type="curve" smooth="yes"/>
      <point x="814" y="902"/>
      <point x="773" y="897"/>
      <point x="737" y="891" type="curve"/>
      <point x="889" y="1057"/>
      <point x="1022" y="1242"/>
      <point x="1163" y="1420" type="curve"/>
      <point x="1163" y="1456" type="line"/>
      <point x="646" y="1456" type="line"/>
      <point x="228" y="837" type="line" smooth="yes"/>
      <point x="160" y="734"/>
      <point x="108" y="628"/>
      <point x="108" y="478" type="curve" smooth="yes"/>
      <point x="108" y="172"/>
      <point x="327" y="-20"/>
    </contour>
    <contour>
      <point x="708" y="287" type="curve" smooth="yes"/>
      <point x="632" y="287"/>
      <point x="576" y="347"/>
      <point x="576" y="469" type="curve" smooth="yes"/>
      <point x="576" y="574"/>
      <point x="602" y="669"/>
      <point x="706" y="669" type="curve" smooth="yes"/>
      <point x="784" y="669"/>
      <point x="839" y="597"/>
      <point x="839" y="467" type="curve" smooth="yes"/>
      <point x="839" y="345"/>
      <point x="783" y="287"/>
    </contour>
  </outline>
</glyph>
<glyph name="seven" format="1">
  <advance width="1445"/>
  <unicode hex="0037"/>
  <outline>
    <contour>
      <point x="307" y="0" type="line"/>
      <point x="817" y="0" type="line"/>
      <point x="1280" y="1117" type="line"/>
      <point x="1272" y="1456" type="line"/>
      <point x="193" y="1456" type="line"/>
      <point x="196" y="1134" type="line"/>
      <point x="774" y="1134" type="line"/>
    </contour>
  </outline>
</glyph>
<glyph name="colon" format="1">
  <advance width="735"/>
  <unicode hex="003A"/>
  <outline>
    <contour>
      <point x="380" y="-4" type="curve" smooth="yes"/>
      <point x="483" y="-4"/>
      <point x="581" y="46"/>
      <point x="581" y="177" type="curve" smooth="yes"/>
      <point x="581" y="315"/>
      <point x="483" y="368"/>
      <point x="380" y="368" type="curve" smooth="yes"/>
      <point x="280" y="368"/>
      <point x="182" y="315"/>
      <point x="182" y="177" type="curve" smooth="yes"/>
      <point x="182" y="43"/>
      <point x="283" y="-4"/>
    </contour>
    <contour>
      <point x="380" y="761" type="curve" smooth="yes"/>
      <point x="483" y="761"/>
      <point x="581" y="811"/>
      <point x="581" y="942" type="curve" smooth="yes"/>
      <point x="581" y="1080"/>
      <point x="483" y="1133"/>
      <point x="380" y="1133" type="curve" smooth="yes"/>
      <point x="280" y="1133"/>
      <point x="182" y="1080"/>
      <point x="182" y="942" type="curve" smooth="yes"/>
      <point x="182" y="808"/>
      <point x="283" y="761"/>
    </contour>
  </outline>
</glyph>
<glyph name="equal" format="1">
  <advance width="1381"/>
  <unicode hex="003D"/>
  <outline>
    <contour>
      <point x="75" y="530" type="line"/>
      <point x="1261" y="530" type="line"/>
      <point x="1261" y="787" type="line"/>
      <point x="75" y="787" type="line"/>
    </contour>
    <contour>
      <point x="75" y="988" type="line"/>
      <point x="1261" y="988" type="line"/>
      <point x="1261" y="1244" type="line"/>
      <point x="75" y="1244" type="line"/>
    </contour>
  </outline>
</glyph>
<glyph name="question" format="1">
  <advance width="1158"/>
  <unicode hex="003F"/>
  <outline>
    <contour>
      <point x="318" y="547" type="curve"/>
      <point x="391" y="506" type="line"/>
      <point x="640" y="780"/>
      <point x="1022" y="813"/>
      <point x="1022" y="1242" type="curve" smooth="yes"/>
      <point x="1022" y="1448"/>
      <point x="804" y="1592"/>
      <point x="558" y="1592" type="curve" smooth="yes"/>
      <point x="443" y="1592"/>
      <point x="232" y="1552"/>
      <point x="114" y="1426" type="curve"/>
      <point x="225" y="1121" type="line"/>
      <point x="323" y="1171"/>
      <point x="418" y="1186"/>
      <point x="476" y="1186" type="curve" smooth="yes"/>
      <point x="582" y="1186"/>
      <point x="607" y="1124"/>
      <point x="607" y="1078" type="curve" smooth="yes"/>
      <point x="607" y="976"/>
      <point x="502" y="940"/>
    </contour>
    <contour>
      <point x="363" y="-22" type="curve" smooth="yes"/>
      <point x="468" y="-22"/>
      <point x="541" y="46"/>
      <point x="541" y="161" type="curve" smooth="yes"/>
      <point x="541" y="280"/>
      <point x="468" y="346"/>
      <point x="363" y="346" type="curve" smooth="yes"/>
      <point x="252" y="346"/>
      <point x="178" y="280"/>
      <point x="178" y="161" type="curve" smooth="yes"/>
      <point x="178" y="44"/>
      <point x="252" y="-22"/>
    </contour>
  </outline>
</glyph>
<glyph name="at" format="1">
  <advance width="2074"/>
  <unicode hex="0040"/>
  <outline>
    <contour>
      <point x="1040" y="-86" type="curve" smooth="yes"/>
      <point x="1264" y="-86"/>
      <point x="1504" y="-36"/>
      <point x="1639" y="75" type="curve"/>
      <point x="1564" y="267" type="line"/>
      <point x="1422" y="190"/>
      <point x="1229" y="158"/>
      <point x="1043" y="158" type="curve" smooth="yes"/>
      <point x="682" y="158"/>
      <point x="471" y="429"/>
      <point x="471" y="742" type="curve" smooth="yes"/>
      <point x="471" y="1059"/>
      <point x="692" y="1391"/>
      <point x="1102" y="1391" type="curve" smooth="yes"/>
      <point x="1504" y="1391"/>
      <point x="1680" y="1131"/>
      <point x="1680" y="895" type="curve" smooth="yes"/>
      <point x="1680" y="635"/>
      <point x="1591" y="511"/>
      <point x="1514" y="511" type="curve" smooth="yes"/>
      <point x="1478" y="511"/>
      <point x="1459" y="544"/>
      <point x="1459" y="615" type="curve" smooth="yes"/>
      <point x="1459" y="746"/>
      <point x="1499" y="950"/>
      <point x="1529" y="1170" type="curve"/>
      <point x="1463" y="1207"/>
      <point x="1295" y="1269"/>
      <point x="1118" y="1269" type="curve" smooth="yes"/>
      <point x="779" y="1269"/>
      <point x="581" y="977"/>
      <point x="581" y="703" type="curve" smooth="yes"/>
      <point x="581" y="482"/>
      <point x="690" y="295"/>
      <point x="973" y="295" type="curve" smooth="yes"/>
      <point x="1101" y="295"/>
      <point x="1213" y="382"/>
      <point x="1265" y="538" type="curve"/>
      <point x="1294" y="395"/>
      <point x="1377" y="309"/>
      <point x="1514" y="309" type="curve"/>
      <point x="1728" y="309"/>
      <point x="1979" y="503"/>
      <point x="1979" y="887" type="curve" smooth="yes"/>
      <point x="1979" y="1335"/>
      <point x="1591" y="1647"/>
      <point x="1109" y="1647" type="curve" smooth="yes"/>
      <point x="557" y="1647"/>
      <point x="154" y="1241"/>
      <point x="154" y="746" type="curve" smooth="yes"/>
      <point x="154" y="211"/>
      <point x="514" y="-86"/>
    </contour>
    <contour>
      <point x="991" y="513" type="curve" smooth="yes"/>
      <point x="935" y="513"/>
      <point x="893" y="552"/>
      <point x="893" y="670" type="curve" smooth="yes"/>
      <point x="893" y="853"/>
      <point x="981" y="1049"/>
      <point x="1134" y="1049" type="curve" smooth="yes"/>
      <point x="1160" y="1049"/>
      <point x="1197" y="1047"/>
      <point x="1224" y="1044" type="curve"/>
      <point x="1189" y="820" type="line"/>
      <point x="1156" y="569"/>
      <point x="1096" y="513"/>
    </contour>
  </outline>
</glyph>
<glyph name="A" format="1">
  <advance width="1615"/>
  <unicode hex="0041"/>
  <outline>
    <contour>
      <point x="821" y="1456" type="move" name="top"/>
    </contour>
    <contour>
      <point x="1347" y="0" type="move" name="ogonek"/>
    </contour>
    <contour>
      <point x="818" y="0" type="move" name="bot"/>
    </contour>
    <contour>
      <point x="52" y="0" type="line"/>
      <point x="542" y="0" type="line"/>
      <point x="626" y="311" type="line"/>
      <point x="979" y="311" type="line"/>
      <point x="1073" y="0" type="line"/>
      <point x="1562" y="0" type="line"/>
      <point x="1130" y="1456" type="line"/>
      <point x="496" y="1456" type="line"/>
    </contour>
    <contour>
      <point x="709" y="595" type="line"/>
      <point x="811" y="1081" type="line"/>
      <point x="904" y="595" type="line"/>
    </contour>
  </outline>
</glyph>
<glyph name="B" format="1">
  <advance width="1483"/>
  <unicode hex="0042"/>
  <outline>
    <contour>
      <point x="723" y="1456" type="move" name="top"/>
    </contour>
    <contour>
      <point x="640" y="8" type="curve" smooth="yes"/>
      <point x="1313" y="8"/>
      <point x="1426" y="173"/>
      <point x="1426" y="434" type="curve" smooth="yes"/>
      <point x="1426" y="653"/>
      <point x="1326" y="750"/>
      <point x="1111" y="777" type="curve"/>
      <point x="1277" y="804"/>
      <point x="1394" y="934"/>
      <point x="1394" y="1092" type="curve" smooth="yes"/>
      <point x="1394" y="1453"/>
      <point x="1045" y="1469"/>
      <point x="754" y="1469" type="curve" smooth="yes"/>
      <point x="670" y="1469"/>
      <point x="360" y="1463"/>
      <point x="154" y="1458" type="curve"/>
      <point x="154" y="26" type="line"/>
      <point x="341" y="13"/>
      <point x="505" y="8"/>
    </contour>
    <contour>
      <point x="675" y="309" type="curve" smooth="yes"/>
      <point x="662" y="309"/>
      <point x="649" y="310"/>
      <point x="638" y="310" type="curve"/>
      <point x="638" y="617" type="line"/>
      <point x="725" y="617" type="line" smooth="yes"/>
      <point x="859" y="617"/>
      <point x="942" y="629"/>
      <point x="942" y="480" type="curve" smooth="yes"/>
      <point x="942" y="297"/>
      <point x="817" y="309"/>
    </contour>
    <contour>
      <point x="638" y="888" type="line"/>
      <point x="638" y="1181" type="line"/>
      <point x="629" y="1180"/>
      <point x="672" y="1179"/>
      <point x="659" y="1179" type="curve" smooth="yes"/>
      <point x="799" y="1179"/>
      <point x="872" y="1184"/>
      <point x="872" y="1023" type="curve" smooth="yes"/>
      <point x="872" y="941"/>
      <point x="831" y="888"/>
      <point x="729" y="888" type="curve" smooth="yes"/>
    </contour>
  </outline>
</glyph>
<glyph name="C" format="1">
  <advance width="1641"/>
  <unicode hex="0043"/>
  <outline>
    <contour>
      <point x="913" y="1456" type="move" name="top"/>
    </contour>
    <contour>
      <point x="882" y="-1" type="move" name="bot"/>
    </contour>
    <contour>
      <point x="105" y="734" type="curve" smooth="yes"/>
      <point x="105" y="250"/>
      <point x="376" y="-18"/>
      <point x="862" y="-20" type="curve" smooth="yes"/>
      <point x="1388" y="-22"/>
      <point x="1495" y="305"/>
      <point x="1527" y="447" type="curve"/>
      <point x="1206" y="579" type="line"/>
      <point x="1175" y="579" type="line"/>
      <point x="1140" y="447"/>
      <point x="1069" y="267"/>
      <point x="864" y="269" type="curve" smooth="yes"/>
      <point x="700" y="271"/>
      <point x="573" y="379"/>
      <point x="573" y="734" type="curve" smooth="yes"/>
      <point x="573" y="1074"/>
      <point x="669" y="1161"/>
      <point x="865" y="1185" type="curve" smooth="yes"/>
      <point x="1069" y="1197"/>
      <point x="1140" y="1004"/>
      <point x="1176" y="874" type="curve"/>
      <point x="1207" y="874" type="line"/>
      <point x="1528" y="1005" type="line"/>
      <point x="1497" y="1142"/>
      <point x="1370" y="1477"/>
      <point x="863" y="1476" type="curve" smooth="yes"/>
      <point x="376" y="1473"/>
      <point x="105" y="1204"/>
    </contour>
  </outline>
</glyph>
<glyph name="F" format="1">
  <advance width="1270"/>
  <unicode hex="0046"/>
  <outline>
    <contour>
      <point x="724" y="1456" type="move" name="top"/>
    </contour>
    <contour>
      <point x="162" y="1456" type="line"/>
      <point x="162" y="0" type="line"/>
      <point x="598" y="0" type="line"/>
      <point x="598" y="632" type="line"/>
      <point x="531" y="568" type="line"/>
      <point x="1159" y="568" type="line"/>
      <point x="1159" y="853" type="line"/>
      <point x="510" y="853" type="line"/>
      <point x="598" y="784" type="line"/>
      <point x="598" y="1233" type="line"/>
      <point x="501" y="1159" type="line"/>
      <point x="1166" y="1159" type="line"/>
      <point x="1185" y="1456" type="line"/>
    </contour>
  </outline>
</glyph>
<glyph name="G" format="1">
  <advance width="1659"/>
  <unicode hex="0047"/>
  <outline>
    <contour>
      <point x="858" y="1456" type="move" name="top"/>
    </contour>
    <contour>
      <point x="734" y="-1" type="move" name="bot"/>
    </contour>
    <contour>
      <point x="863" y="-20" type="curve" smooth="yes"/>
      <point x="1135" y="-20"/>
      <point x="1383" y="40"/>
      <point x="1511" y="90" type="curve"/>
      <point x="1511" y="812" type="line"/>
      <point x="839" y="812" type="line"/>
      <point x="830" y="551" type="line"/>
      <point x="1123" y="532" type="line"/>
      <point x="1123" y="313" type="line"/>
      <point x="1136" y="317"/>
      <point x="1048" y="295"/>
      <point x="934" y="295" type="curve" smooth="yes"/>
      <point x="824" y="295"/>
      <point x="618" y="318"/>
      <point x="618" y="721" type="curve" smooth="yes"/>
      <point x="618" y="1039"/>
      <point x="778" y="1155"/>
      <point x="966" y="1155" type="curve" smooth="yes"/>
      <point x="1101" y="1155"/>
      <point x="1198" y="1100"/>
      <point x="1276" y="959" type="curve"/>
      <point x="1296" y="961" type="line"/>
      <point x="1533" y="1167" type="line"/>
      <point x="1428" y="1349"/>
      <point x="1278" y="1478"/>
      <point x="920" y="1478" type="curve" smooth="yes"/>
      <point x="492" y="1478"/>
      <point x="96" y="1255"/>
      <point x="96" y="722" type="curve" smooth="yes"/>
      <point x="96" y="216"/>
      <point x="407" y="-20"/>
    </contour>
  </outline>
</glyph>
<glyph name="K" format="1">
  <advance width="1492"/>
  <unicode hex="004B"/>
  <outline>
    <contour>
      <point x="806" y="1456" type="move" name="top"/>
    </contour>
    <contour>
      <point x="802" y="0" type="move" name="bot"/>
    </contour>
    <contour>
      <point x="1430" y="1456" type="line"/>
      <point x="951" y="1456" type="line"/>
      <point x="569" y="896" type="line"/>
      <point x="598" y="843" type="line"/>
      <point x="598" y="1456" type="line"/>
      <point x="162" y="1456" type="line"/>
      <point x="162" y="0" type="line"/>
      <point x="598" y="0" type="line"/>
      <point x="598" y="547" type="line"/>
      <point x="571" y="477" type="line"/>
      <point x="641" y="581" type="line"/>
      <point x="591" y="581" type="line"/>
      <point x="1003" y="0" type="line"/>
      <point x="1489" y="0" type="line"/>
      <point x="1489" y="3" type="line"/>
      <point x="884" y="853" type="line"/>
      <point x="887" y="716" type="line"/>
      <point x="1430" y="1459" type="line"/>
    </contour>
  </outline>
</glyph>
<glyph name="M" format="1">
  <advance width="1955"/>
  <unicode hex="004D"/>
  <outline>
    <contour>
      <point x="973" y="1456" type="move" name="top"/>
    </contour>
    <contour>
      <point x="136" y="-8" type="line"/>
      <point x="587" y="-8" type="line"/>
      <point x="587" y="598" type="line"/>
      <point x="593" y="745" type="line"/>
      <point x="838" y="273" type="line"/>
      <point x="1105" y="273" type="line"/>
      <point x="1357" y="750" type="line"/>
      <point x="1362" y="601" type="line"/>
      <point x="1362" y="-8" type="line"/>
      <point x="1819" y="-8" type="line"/>
      <point x="1819" y="696" type="line"/>
      <point x="1798" y="1456" type="line"/>
      <point x="1335" y="1456" type="line"/>
      <point x="985" y="808" type="line"/>
      <point x="630" y="1456" type="line"/>
      <point x="158" y="1456" type="line"/>
      <point x="136" y="684" type="line"/>
    </contour>
  </outline>
</glyph>
<glyph name="N" format="1">
  <advance width="1700"/>
  <unicode hex="004E"/>
  <outline>
    <contour>
      <point x="747" y="1456" type="move" name="top"/>
    </contour>
    <contour>
      <point x="781" y="0" type="move" name="bot"/>
    </contour>
    <contour>
      <point x="154" y="0" type="line"/>
      <point x="622" y="0" type="line"/>
      <point x="622" y="412" type="line"/>
      <point x="605" y="720" type="line"/>
      <point x="1079" y="0" type="line"/>
      <point x="1547" y="0" type="line"/>
      <point x="1547" y="1456" type="line"/>
      <point x="1091" y="1456" type="line"/>
      <point x="1091" y="1034" type="line"/>
      <point x="1110" y="679" type="line"/>
      <point x="605" y="1456" type="line"/>
      <point x="154" y="1456" type="line"/>
    </contour>
  </outline>
</glyph>
<glyph name="O" format="1">
  <advance width="1684"/>
  <unicode hex="004F"/>
  <outline>
    <contour>
      <point x="826" y="1456" type="move" name="top"/>
    </contour>
    <contour>
      <point x="753" y="-1" type="move" name="ogonek"/>
    </contour>
    <contour>
      <point x="845" y="315" type="curve" smooth="yes"/>
      <point x="717" y="315"/>
      <point x="617" y="447"/>
      <point x="617" y="722" type="curve" smooth="yes"/>
      <point x="617" y="989"/>
      <point x="713" y="1137"/>
      <point x="843" y="1137" type="curve" smooth="yes"/>
      <point x="975" y="1137"/>
      <point x="1065" y="989"/>
      <point x="1065" y="722" type="curve" smooth="yes"/>
      <point x="1065" y="448"/>
      <point x="970" y="315"/>
    </contour>
    <contour>
      <point x="843" y="-22" type="curve" smooth="yes"/>
      <point x="1310" y="-22"/>
      <point x="1590" y="231"/>
      <point x="1590" y="727" type="curve" smooth="yes"/>
      <point x="1590" y="1207"/>
      <point x="1312" y="1478"/>
      <point x="842" y="1478" type="curve" smooth="yes"/>
      <point x="376" y="1478"/>
      <point x="94" y="1208"/>
      <point x="94" y="723" type="curve" smooth="yes"/>
      <point x="94" y="236"/>
      <point x="382" y="-22"/>
    </contour>
  </outline>
</glyph>
<glyph name="R" format="1">
  <advance width="1577"/>
  <unicode hex="0052"/>
  <outline>
    <contour>
      <point x="784" y="1456" type="move" name="top"/>
    </contour>
    <contour>
      <point x="767" y="0" type="move" name="bot"/>
    </contour>
    <contour>
      <point x="153" y="0" type="line"/>
      <point x="637" y="0" type="line"/>
      <point x="637" y="574" type="line"/>
      <point x="708" y="574" type="line"/>
      <point x="1002" y="0" type="line"/>
      <point x="1532" y="0" type="line"/>
      <point x="1532" y="14" type="line"/>
      <point x="1190" y="644" type="line"/>
      <point x="1288" y="681"/>
      <point x="1433" y="761"/>
      <point x="1433" y="1015" type="curve" smooth="yes"/>
      <point x="1434" y="1401"/>
      <point x="1264" y="1469"/>
      <point x="778" y="1469" type="curve" smooth="yes"/>
      <point x="613" y="1469"/>
      <point x="329" y="1464"/>
      <point x="153" y="1458" type="curve"/>
    </contour>
    <contour>
      <point x="637" y="855" type="line"/>
      <point x="637" y="1156" type="line"/>
      <point x="691" y="1160"/>
      <point x="750" y="1169"/>
      <point x="806" y="1169" type="curve" smooth="yes"/>
      <point x="886" y="1169"/>
      <point x="994" y="1151"/>
      <point x="994" y="1026" type="curve" smooth="yes"/>
      <point x="994" y="885"/>
      <point x="921" y="855"/>
      <point x="805" y="855" type="curve" smooth="yes"/>
    </contour>
  </outline>
</glyph>
<glyph name="S" format="1">
  <advance width="1230"/>
  <unicode hex="0053"/>
  <outline>
    <contour>
      <point x="618" y="1453" type="move" name="top"/>
    </contour>
    <contour>
      <point x="599" y="0" type="move" name="bot"/>
    </contour>
    <contour>
      <point x="617" y="-20" type="curve" smooth="yes"/>
      <point x="944" y="-20"/>
      <point x="1159" y="146"/>
      <point x="1160" y="421" type="curve" smooth="yes"/>
      <point x="1161" y="685"/>
      <point x="1036" y="782"/>
      <point x="835" y="862" type="curve" smooth="yes"/>
      <point x="674" y="927" type="line" smooth="yes"/>
      <point x="555" y="973"/>
      <point x="508" y="1004"/>
      <point x="507" y="1076" type="curve" smooth="yes"/>
      <point x="506" y="1159"/>
      <point x="563" y="1198"/>
      <point x="624" y="1199" type="curve" smooth="yes"/>
      <point x="673" y="1199"/>
      <point x="764" y="1155"/>
      <point x="794" y="1049" type="curve"/>
      <point x="821" y="1049" type="line"/>
      <point x="1115" y="1182" type="line"/>
      <point x="1090" y="1296"/>
      <point x="931" y="1473"/>
      <point x="617" y="1476" type="curve" smooth="yes"/>
      <point x="329" y="1481"/>
      <point x="78" y="1349"/>
      <point x="81" y="1040" type="curve" smooth="yes"/>
      <point x="84" y="814"/>
      <point x="189" y="709"/>
      <point x="335" y="649" type="curve" smooth="yes"/>
      <point x="565" y="556" type="line" smooth="yes"/>
      <point x="703" y="499"/>
      <point x="715" y="454"/>
      <point x="716" y="390" type="curve" smooth="yes"/>
      <point x="717" y="314"/>
      <point x="670" y="282"/>
      <point x="597" y="282" type="curve" smooth="yes"/>
      <point x="505" y="282"/>
      <point x="409" y="378"/>
      <point x="368" y="443" type="curve"/>
      <point x="330" y="443" type="line"/>
      <point x="65" y="255" type="line"/>
      <point x="141" y="131"/>
      <point x="308" y="-20"/>
    </contour>
  </outline>
</glyph>
<glyph name="T" format="1">
  <advance width="1353"/>
  <unicode hex="0054"/>
  <outline>
    <contour>
      <point x="686" y="1456" type="move" name="top"/>
    </contour>
    <contour>
      <point x="685" y="0" type="move" name="bot"/>
    </contour>
    <contour>
      <point x="670" y="591" type="move" name="mid"/>
    </contour>
    <contour>
      <point x="436" y="-8" type="line"/>
      <point x="919" y="-8" type="line"/>
      <point x="919" y="1166" type="line"/>
      <point x="1291" y="1166" type="line"/>
      <point x="1291" y="1456" type="line"/>
      <point x="62" y="1456" type="line"/>
      <point x="62" y="1166" type="line"/>
      <point x="436" y="1166" type="line"/>
    </contour>
  </outline>
</glyph>
<glyph name="U" format="1">
  <advance width="1569"/>
  <unicode hex="0055"/>
  <outline>
    <contour>
      <point x="780" y="1456" type="move" name="top"/>
    </contour>
    <contour>
      <point x="821" y="-9" type="move" name="ogonek"/>
    </contour>
    <contour>
      <point x="808" y="0" type="move" name="bot"/>
    </contour>
    <contour>
      <point x="779" y="-20" type="curve" smooth="yes"/>
      <point x="1196" y="-20"/>
      <point x="1443" y="174"/>
      <point x="1443" y="529" type="curve" smooth="yes"/>
      <point x="1443" y="1456" type="line"/>
      <point x="960" y="1456" type="line"/>
      <point x="960" y="563" type="line" smooth="yes"/>
      <point x="960" y="378"/>
      <point x="887" y="316"/>
      <point x="779" y="316" type="curve" smooth="yes"/>
      <point x="686" y="316"/>
      <point x="611" y="375"/>
      <point x="611" y="560" type="curve" smooth="yes"/>
      <point x="611" y="1456" type="line"/>
      <point x="128" y="1456" type="line"/>
      <point x="128" y="528" type="line" smooth="yes"/>
      <point x="128" y="174"/>
      <point x="364" y="-20"/>
    </contour>
  </outline>
</glyph>
<glyph name="V" format="1">
  <advance width="1345"/>
  <unicode hex="0056"/>
  <outline>
    <contour>
      <point x="364" y="-8" type="line"/>
      <point x="933" y="-8" type="line"/>
      <point x="1377" y="1456" type="line"/>
      <point x="922" y="1456" type="line"/>
      <point x="951" y="1538"/>
      <point x="636" y="343"/>
      <point x="665" y="426" type="curve"/>
      <point x="592" y="773"/>
      <point x="507" y="1112"/>
      <point x="431" y="1456" type="curve"/>
      <point x="-32" y="1456" type="line"/>
    </contour>
  </outline>
</glyph>
<glyph name="W" format="1">
  <advance width="2086"/>
  <unicode hex="0057"/>
  <outline>
    <contour>
      <point x="1044" y="1456" type="move" name="top"/>
    </contour>
    <contour>
      <point x="1010" y="0" type="move" name="bot"/>
    </contour>
    <contour>
      <point x="361" y="0" type="line"/>
      <point x="798" y="0" type="line"/>
      <point x="1027" y="849" type="line"/>
      <point x="1242" y="0" type="line"/>
      <point x="1674" y="0" type="line"/>
      <point x="2052" y="1456" type="line"/>
      <point x="1586" y="1456" type="line"/>
      <point x="1434" y="631" type="line"/>
      <point x="1211" y="1463" type="line"/>
      <point x="843" y="1463" type="line"/>
      <point x="625" y="633" type="line"/>
      <point x="507" y="1456" type="line"/>
      <point x="33" y="1456" type="line"/>
    </contour>
  </outline>
</glyph>
<glyph name="X" format="1">
  <advance width="1494"/>
  <unicode hex="0058"/>
  <outline>
    <contour>
      <point x="-42" y="-8" type="line"/>
      <point x="461" y="-8" type="line"/>
      <point x="736" y="411" type="line"/>
      <point x="1017" y="-8" type="line"/>
      <point x="1540" y="-8" type="line"/>
      <point x="1038" y="744" type="line"/>
      <point x="1506" y="1456" type="line"/>
      <point x="988" y="1456" type="line"/>
      <point x="785" y="1124" type="line"/>
      <point x="565" y="1456" type="line"/>
      <point x="39" y="1456" type="line"/>
      <point x="487" y="785" type="line"/>
    </contour>
  </outline>
</glyph>
<glyph name="bracketright" format="1">
  <advance width="965"/>
  <unicode hex="005D"/>
  <outline>
    <contour>
      <point x="301" y="-247" type="line"/>
      <point x="740" y="-247" type="line"/>
      <point x="740" y="1487" type="line"/>
      <point x="301" y="1487" type="line"/>
      <point x="301" y="1236" type="line"/>
      <point x="453" y="1236" type="line"/>
      <point x="453" y="7" type="line"/>
      <point x="301" y="7" type="line"/>
    </contour>
  </outline>
</glyph>
<glyph name="asciicircum" format="1">
  <advance width="1616"/>
  <unicode hex="005E"/>
  <outline>
    <contour>
      <point x="117" y="259" type="line"/>
      <point x="571" y="259" type="line"/>
      <point x="793" y="779" type="line"/>
      <point x="1047" y="259" type="line"/>
      <point x="1499" y="259" type="line"/>
      <point x="877" y="1456" type="line"/>
      <point x="685" y="1456" type="line"/>
    </contour>
  </outline>
</glyph>
<glyph name="a" format="1">
  <advance width="1184"/>
  <unicode hex="0061"/>
  <outline>
    <contour>
      <point x="561" y="1081" type="move" name="top"/>
    </contour>
    <contour>
      <point x="897" y="-1" type="move" name="ogonek"/>
    </contour>
    <contour>
      <point x="707" y="-1" type="move" name="bot"/>
    </contour>
    <contour>
      <point x="395" y="-15" type="curve" smooth="yes"/>
      <point x="567" y="-15"/>
      <point x="650" y="53"/>
      <point x="703" y="123" type="curve"/>
      <point x="777" y="0" type="line"/>
      <point x="1103" y="0" type="line"/>
      <point x="1103" y="593" type="line" smooth="yes"/>
      <point x="1103" y="950"/>
      <point x="884" y="1098"/>
      <point x="616" y="1098" type="curve" smooth="yes"/>
      <point x="464" y="1098"/>
      <point x="289" y="1049"/>
      <point x="108" y="969" type="curve"/>
      <point x="181" y="715" type="line"/>
      <point x="313" y="751"/>
      <point x="430" y="788"/>
      <point x="521" y="788" type="curve" smooth="yes"/>
      <point x="597" y="788"/>
      <point x="660" y="763"/>
      <point x="658" y="688" type="curve" smooth="yes"/>
      <point x="658" y="643" type="line"/>
      <point x="562" y="644" type="line" smooth="yes"/>
      <point x="395" y="644"/>
      <point x="67" y="599"/>
      <point x="67" y="311" type="curve" smooth="yes"/>
      <point x="67" y="97"/>
      <point x="203" y="-15"/>
    </contour>
    <contour>
      <point x="562" y="212" type="curve" smooth="yes"/>
      <point x="518" y="212"/>
      <point x="467" y="247"/>
      <point x="467" y="320" type="curve" smooth="yes"/>
      <point x="467" y="441"/>
      <point x="602" y="457"/>
      <point x="672" y="457" type="curve" smooth="yes"/>
      <point x="658" y="457" type="line"/>
      <point x="658" y="243" type="line"/>
      <point x="645" y="237"/>
      <point x="610" y="212"/>
    </contour>
  </outline>
</glyph>
<glyph name="c" format="1">
  <advance width="1158"/>
  <unicode hex="0063"/>
  <outline>
    <contour>
      <point x="622" y="1082" type="move" name="top"/>
    </contour>
    <contour>
      <point x="641" y="0" type="move" name="bot"/>
    </contour>
    <contour>
      <point x="629" y="-20" type="curve" smooth="yes"/>
      <point x="822" y="-20"/>
      <point x="990" y="36"/>
      <point x="1102" y="259" type="curve"/>
      <point x="844" y="381" type="line"/>
      <point x="831" y="381" type="line"/>
      <point x="788" y="288"/>
      <point x="718" y="277"/>
      <point x="663" y="280" type="curve" smooth="yes"/>
      <point x="589" y="285"/>
      <point x="514" y="325"/>
      <point x="514" y="541" type="curve" smooth="yes"/>
      <point x="514" y="763"/>
      <point x="595" y="795"/>
      <point x="667" y="800" type="curve" smooth="yes"/>
      <point x="723" y="803"/>
      <point x="793" y="793"/>
      <point x="836" y="699" type="curve"/>
      <point x="849" y="699" type="line"/>
      <point x="1107" y="821" type="line"/>
      <point x="1014" y="1032"/>
      <point x="840" y="1100"/>
      <point x="623" y="1100" type="curve" smooth="yes"/>
      <point x="299" y="1100"/>
      <point x="59" y="887"/>
      <point x="59" y="541" type="curve" smooth="yes"/>
      <point x="59" y="194"/>
      <point x="281" y="-20"/>
    </contour>
  </outline>
</glyph>
<glyph name="d" format="1">
  <advance width="1309"/>
  <unicode hex="0064"/>
  <outline>
    <contour>
      <point x="416" y="1082" type="move" name="top"/>
    </contour>
    <contour>
      <point x="930" y="1032" type="move" name="caron.alt"/>
    </contour>
    <contour>
      <point x="917" y="1285" type="move" name="mid"/>
    </contour>
    <contour>
      <point x="477" y="-20" type="curve" smooth="yes"/>
      <point x="650" y="-20"/>
      <point x="735" y="68"/>
      <point x="773" y="173" type="curve"/>
      <point x="780" y="0" type="line"/>
      <point x="1190" y="0" type="line"/>
      <point x="1190" y="1560" type="line"/>
      <point x="741" y="1540" type="line"/>
      <point x="741" y="1129" type="line"/>
      <point x="745" y="973" type="line"/>
      <point x="701" y="1037"/>
      <point x="621" y="1101"/>
      <point x="489" y="1102" type="curve"/>
      <point x="192" y="1101"/>
      <point x="65" y="858"/>
      <point x="65" y="527" type="curve" smooth="yes"/>
      <point x="65" y="226"/>
      <point x="197" y="-20"/>
    </contour>
    <contour>
      <point x="610" y="263" type="curve" smooth="yes"/>
      <point x="586" y="263"/>
      <point x="520" y="275"/>
      <point x="520" y="525" type="curve" smooth="yes"/>
      <point x="520" y="825"/>
      <point x="606" y="821"/>
      <point x="630" y="821" type="curve" smooth="yes"/>
      <point x="697" y="821"/>
      <point x="715" y="786"/>
      <point x="737" y="765" type="curve"/>
      <point x="737" y="351" type="line"/>
      <point x="718" y="300"/>
      <point x="670" y="263"/>
    </contour>
  </outline>
</glyph>
<glyph name="e" format="1">
  <advance width="1218"/>
  <unicode hex="0065"/>
  <outline>
    <contour>
      <point x="631" y="1082" type="move" name="top"/>
    </contour>
    <contour>
      <point x="803" y="-9" type="move" name="ogonek"/>
    </contour>
    <contour>
      <point x="673" y="0" type="move" name="bot"/>
    </contour>
    <contour>
      <point x="671" y="-20" type="curve" smooth="yes"/>
      <point x="863" y="-20"/>
      <point x="1037" y="38"/>
      <point x="1119" y="123" type="curve"/>
      <point x="1032" y="324" type="line"/>
      <point x="1013" y="324" type="line"/>
      <point x="932" y="271"/>
      <point x="823" y="236"/>
      <point x="717" y="236" type="curve" smooth="yes"/>
      <point x="577" y="236"/>
      <point x="478" y="319"/>
      <point x="478" y="449" type="curve"/>
      <point x="455" y="412" type="line"/>
      <point x="1114" y="412" type="line"/>
      <point x="1114" y="412"/>
      <point x="1129" y="468"/>
      <point x="1128" y="571" type="curve" smooth="yes"/>
      <point x="1115" y="876"/>
      <point x="995" y="1101"/>
      <point x="628" y="1101" type="curve" smooth="yes"/>
      <point x="279" y="1101"/>
      <point x="69" y="884"/>
      <point x="69" y="543" type="curve" smooth="yes"/>
      <point x="69" y="198"/>
      <point x="297" y="-20"/>
    </contour>
    <contour>
      <point x="483" y="624" type="line"/>
      <point x="488" y="794"/>
      <point x="554" y="849"/>
      <point x="648" y="849" type="curve" smooth="yes"/>
      <point x="738" y="850"/>
      <point x="786" y="790"/>
      <point x="785" y="624" type="curve"/>
    </contour>
  </outline>
</glyph>
<glyph name="g" format="1">
  <advance width="1285"/>
  <unicode hex="0067"/>
  <outline>
    <contour>
      <point x="568" y="1082" type="move" name="top"/>
    </contour>
    <contour>
      <point x="551" y="-508" type="curve" smooth="yes"/>
      <point x="874" y="-508"/>
      <point x="1188" y="-408"/>
      <point x="1188" y="-19" type="curve" smooth="yes"/>
      <point x="1188" y="1082" type="line"/>
      <point x="729" y="1082" type="line"/>
      <point x="733" y="1001" type="line"/>
      <point x="691" y="1050"/>
      <point x="622" y="1100"/>
      <point x="501" y="1100" type="curve" smooth="yes"/>
      <point x="331" y="1100"/>
      <point x="60" y="986"/>
      <point x="60" y="574" type="curve" smooth="yes"/>
      <point x="60" y="37"/>
      <point x="355" y="7"/>
      <point x="483" y="7" type="curve" smooth="yes"/>
      <point x="649" y="7"/>
      <point x="725" y="60"/>
      <point x="761" y="99" type="curve"/>
      <point x="777" y="-11"/>
      <point x="778" y="-11"/>
      <point x="778" y="-31" type="curve" smooth="yes"/>
      <point x="778" y="-177"/>
      <point x="612" y="-205"/>
      <point x="460" y="-205" type="curve" smooth="yes"/>
      <point x="378" y="-205"/>
      <point x="298" y="-196"/>
      <point x="248" y="-193" type="curve"/>
      <point x="226" y="-479" type="line"/>
      <point x="328" y="-496"/>
      <point x="441" y="-508"/>
    </contour>
    <contour>
      <point x="626" y="260" type="curve" smooth="yes"/>
      <point x="574" y="260"/>
      <point x="517" y="330"/>
      <point x="517" y="571" type="curve" smooth="yes"/>
      <point x="517" y="843"/>
      <point x="627" y="819"/>
      <point x="634" y="819" type="curve" smooth="yes"/>
      <point x="703" y="819"/>
      <point x="704" y="800"/>
      <point x="735" y="780" type="curve"/>
      <point x="735" y="286" type="line"/>
      <point x="706" y="276"/>
      <point x="658" y="260"/>
    </contour>
  </outline>
</glyph>
<glyph name="i" format="1">
  <advance width="697"/>
  <unicode hex="0069"/>
  <outline>
    <contour>
      <point x="352" y="1082" type="move" name="top"/>
    </contour>
    <contour>
      <point x="346" y="0" type="move" name="ogonek"/>
    </contour>
    <contour>
      <point x="118" y="0" type="line"/>
      <point x="579" y="0" type="line"/>
      <point x="579" y="1082" type="line"/>
      <point x="118" y="1082" type="line"/>
    </contour>
    <component base="dotaccent" xOffset="-21"/>
  </outline>
</glyph>
<glyph name="j" format="1">
  <advance width="757"/>
  <unicode hex="006A"/>
  <outline>
    <contour>
      <point x="24" y="-663" type="line"/>
      <point x="128" y="-606" type="line"/>
      <point x="419" y="-441"/>
      <point x="620" y="-371"/>
      <point x="620" y="-42" type="curve" smooth="yes"/>
      <point x="620" y="1082" type="line"/>
      <point x="161" y="1082" type="line"/>
      <point x="161" y="-9" type="line" smooth="yes"/>
      <point x="161" y="-137"/>
      <point x="131" y="-182"/>
      <point x="-48" y="-282" type="curve" smooth="yes"/>
      <point x="-157" y="-339" type="line"/>
    </contour>
    <component base="dotaccent" xOffset="38"/>
  </outline>
</glyph>
<glyph name="k" format="1">
  <advance width="1296"/>
  <unicode hex="006B"/>
  <outline>
    <contour>
      <point x="697" y="0" type="move" name="bot"/>
    </contour>
    <contour>
      <point x="120" y="0" type="line"/>
      <point x="581" y="0" type="line"/>
      <point x="581" y="413" type="line"/>
      <point x="586" y="425" type="line"/>
      <point x="827" y="0" type="line"/>
      <point x="1279" y="0" type="line"/>
      <point x="1279" y="35" type="line"/>
      <point x="934" y="580" type="line"/>
      <point x="1275" y="1066" type="line"/>
      <point x="1275" y="1082" type="line"/>
      <point x="807" y="1082" type="line"/>
      <point x="576" y="743" type="line"/>
      <point x="581" y="837" type="line"/>
      <point x="581" y="1560" type="line"/>
      <point x="120" y="1540" type="line"/>
    </contour>
  </outline>
</glyph>
<glyph name="o" format="1">
  <advance width="1280"/>
  <unicode hex="006F"/>
  <outline>
    <contour>
      <point x="642" y="1082" type="move" name="top"/>
    </contour>
    <contour>
      <point x="638" y="0" type="move" name="ogonek"/>
    </contour>
    <contour>
      <point x="640" y="260" type="curve" smooth="yes"/>
      <point x="574" y="260"/>
      <point x="515" y="312"/>
      <point x="515" y="547" type="curve" smooth="yes"/>
      <point x="515" y="770"/>
      <point x="570" y="819"/>
      <point x="640" y="819" type="curve" smooth="yes"/>
      <point x="710" y="819"/>
      <point x="765" y="770"/>
      <point x="765" y="547" type="curve" smooth="yes"/>
      <point x="765" y="315"/>
      <point x="705" y="260"/>
    </contour>
    <contour>
      <point x="640" y="-22" type="curve" smooth="yes"/>
      <point x="994" y="-22"/>
      <point x="1221" y="211"/>
      <point x="1221" y="547" type="curve" smooth="yes"/>
      <point x="1221" y="868"/>
      <point x="989" y="1100"/>
      <point x="640" y="1100" type="curve" smooth="yes"/>
      <point x="291" y="1100"/>
      <point x="59" y="868"/>
      <point x="59" y="547" type="curve" smooth="yes"/>
      <point x="59" y="211"/>
      <point x="286" y="-22"/>
    </contour>
  </outline>
</glyph>
<glyph name="q" format="1">
  <advance width="1306"/>
  <unicode hex="0071"/>
  <outline>
    <contour>
      <point x="743" y="-487" type="line"/>
      <point x="1194" y="-487" type="line"/>
      <point x="1194" y="1082" type="line"/>
      <point x="781" y="1082" type="line"/>
      <point x="775" y="904" type="line"/>
      <point x="731" y="1015"/>
      <point x="640" y="1100"/>
      <point x="477" y="1100" type="curve" smooth="yes"/>
      <point x="192" y="1100"/>
      <point x="66" y="854"/>
      <point x="66" y="552" type="curve" smooth="yes"/>
      <point x="66" y="221"/>
      <point x="198" y="-20"/>
      <point x="490" y="-20" type="curve" smooth="yes"/>
      <point x="635" y="-20"/>
      <point x="709" y="48"/>
      <point x="747" y="106" type="curve"/>
      <point x="743" y="-68" type="line"/>
    </contour>
    <contour>
      <point x="631" y="260" type="curve" smooth="yes"/>
      <point x="607" y="260"/>
      <point x="521" y="257"/>
      <point x="521" y="552" type="curve" smooth="yes"/>
      <point x="521" y="807"/>
      <point x="586" y="819"/>
      <point x="612" y="819" type="curve" smooth="yes"/>
      <point x="671" y="819"/>
      <point x="720" y="784"/>
      <point x="738" y="739" type="curve"/>
      <point x="738" y="319" type="line"/>
      <point x="717" y="296"/>
      <point x="699" y="260"/>
    </contour>
  </outline>
</glyph>
<glyph name="r" format="1">
  <advance width="932"/>
  <unicode hex="0072"/>
  <outline>
    <contour>
      <point x="401" y="1082" type="move" name="top"/>
    </contour>
    <contour>
      <point x="400" y="0" type="move" name="bot"/>
    </contour>
    <contour>
      <point x="94" y="0" type="line"/>
      <point x="555" y="0" type="line"/>
      <point x="555" y="606" type="line" smooth="yes"/>
      <point x="555" y="734"/>
      <point x="697" y="755"/>
      <point x="775" y="755" type="curve" smooth="yes"/>
      <point x="800" y="755"/>
      <point x="839" y="752"/>
      <point x="886" y="742" type="curve"/>
      <point x="912" y="1067" type="line"/>
      <point x="865" y="1076"/>
      <point x="817" y="1083"/>
      <point x="773" y="1083" type="curve" smooth="yes"/>
      <point x="672" y="1083"/>
      <point x="580" y="1052"/>
      <point x="519" y="935" type="curve"/>
      <point x="501" y="1082" type="line"/>
      <point x="94" y="1082" type="line"/>
    </contour>
  </outline>
</glyph>
<glyph name="t" format="1">
  <advance width="951"/>
  <unicode hex="0074"/>
  <outline>
    <contour>
      <point x="480" y="1292" type="move" name="top"/>
    </contour>
    <contour>
      <point x="537" y="0" type="move" name="bot"/>
    </contour>
    <contour>
      <point x="394" y="767" type="move" name="mid"/>
    </contour>
    <contour>
      <point x="665" y="-10" type="curve" smooth="yes"/>
      <point x="944" y="0" type="line"/>
      <point x="956" y="290" type="line"/>
      <point x="766" y="298" type="line" smooth="yes"/>
      <point x="667" y="303"/>
      <point x="625" y="362"/>
      <point x="625" y="452" type="curve" smooth="yes"/>
      <point x="625" y="823" type="line"/>
      <point x="913" y="823" type="line"/>
      <point x="913" y="1082" type="line"/>
      <point x="625" y="1082" type="line"/>
      <point x="625" y="1439" type="line"/>
      <point x="202" y="1405" type="line"/>
      <point x="187" y="1087" type="line"/>
      <point x="27" y="1061" type="line"/>
      <point x="17" y="823" type="line"/>
      <point x="175" y="823" type="line"/>
      <point x="175" y="471" type="line" smooth="yes"/>
      <point x="175" y="175"/>
      <point x="230" y="-10"/>
    </contour>
  </outline>
</glyph>
<glyph name="w" format="1">
  <advance width="1544"/>
  <unicode hex="0077"/>
  <outline>
    <contour>
      <point x="791" y="1082" type="move" name="top"/>
    </contour>
    <contour>
      <point x="1198" y="1082" type="line"/>
      <point x="1057" y="156" type="line"/>
      <point x="1140" y="156" type="line"/>
      <point x="972" y="1082" type="line"/>
      <point x="614" y="1082" type="line"/>
      <point x="404" y="158" type="line"/>
      <point x="481" y="158" type="line"/>
      <point x="375" y="1082" type="line"/>
      <point x="-4" y="1082" type="line"/>
      <point x="241" y="-7" type="line"/>
      <point x="607" y="-7" type="line"/>
      <point x="836" y="848" type="line"/>
      <point x="755" y="848" type="line"/>
      <point x="897" y="-7" type="line"/>
      <point x="1284" y="-7" type="line"/>
      <point x="1543" y="1082" type="line"/>
    </contour>
  </outline>
</glyph>
<glyph name="x" format="1">
  <advance width="1120"/>
  <unicode hex="0078"/>
  <outline>
    <contour>
      <point x="-36" y="-8" type="line"/>
      <point x="389" y="-8" type="line"/>
      <point x="547" y="208" type="line"/>
      <point x="685" y="-8" type="line"/>
      <point x="1165" y="-8" type="line"/>
      <point x="806" y="542" type="line"/>
      <point x="1132" y="1082" type="line"/>
      <point x="718" y="1082" type="line"/>
      <point x="587" y="877" type="line"/>
      <point x="454" y="1082" type="line"/>
      <point x="-20" y="1082" type="line"/>
      <point x="330" y="541" type="line"/>
    </contour>
  </outline>
</glyph>
<glyph name="y" format="1">
  <advance width="1137"/>
  <unicode hex="0079"/>
  <outline>
    <contour>
      <point x="543" y="1082" type="move" name="top"/>
    </contour>
    <contour>
      <point x="1172" y="1082" type="line"/>
      <point x="792" y="1082" type="line"/>
      <point x="513" y="400" type="line"/>
      <point x="408" y="260" type="line"/>
      <point x="136" y="-332" type="line"/>
      <point x="460" y="-465" type="line"/>
    </contour>
    <contour>
      <point x="657" y="365" type="line"/>
      <point x="347" y="1082" type="line"/>
      <point x="-50" y="1082" type="line"/>
      <point x="470" y="-24" type="line"/>
    </contour>
  </outline>
</glyph>
<glyph name="z" format="1">
  <advance width="927"/>
  <unicode hex="007A"/>
  <outline>
    <contour>
      <point x="456" y="1082" type="move" name="top"/>
    </contour>
    <contour>
      <point x="523" y="0" type="move" name="bot"/>
    </contour>
    <contour>
      <point x="46" y="0" type="line"/>
      <point x="931" y="0" type="line"/>
      <point x="946" y="268" type="line"/>
      <point x="553" y="268" type="line"/>
      <point x="906" y="898" type="line"/>
      <point x="906" y="1082" type="line"/>
      <point x="43" y="1082" type="line"/>
      <point x="31" y="825" type="line"/>
      <point x="422" y="825" type="line"/>
      <point x="46" y="168" type="line"/>
    </contour>
  </outline>
</glyph>
<glyph name="asciitilde" format="1">
  <advance width="1192"/>
  <unicode hex="007E"/>
  <outline>
    <contour>
      <point x="204" y="459" type="line"/>
      <point x="238" y="523"/>
      <point x="288" y="587"/>
      <point x="369" y="587" type="curve" smooth="yes"/>
      <point x="441" y="587"/>
      <point x="482" y="569"/>
      <point x="535" y="541" type="curve" smooth="yes"/>
      <point x="632" y="496"/>
      <point x="701" y="468"/>
      <point x="812" y="468" type="curve" smooth="yes"/>
      <point x="970" y="468"/>
      <point x="1124" y="576"/>
      <point x="1176" y="663" type="curve"/>
      <point x="1066" y="845" type="line"/>
      <point x="958" y="749"/>
      <point x="904" y="732"/>
      <point x="836" y="732" type="curve" smooth="yes"/>
      <point x="789" y="732"/>
      <point x="729" y="745"/>
      <point x="650" y="783" type="curve" smooth="yes"/>
      <point x="578" y="814"/>
      <point x="471" y="845"/>
      <point x="384" y="845" type="curve" smooth="yes"/>
      <point x="222" y="845"/>
      <point x="136" y="754"/>
      <point x="81" y="651" type="curve"/>
    </contour>
  </outline>
</glyph>
<glyph name="sterling" format="1">
  <advance width="1263"/>
  <unicode hex="00A3"/>
  <outline>
    <contour>
      <point x="116" y="0" type="line"/>
      <point x="1194" y="0" type="line"/>
      <point x="1195" y="311" type="line"/>
      <point x="743" y="311" type="line"/>
      <point x="743" y="657" type="line"/>
      <point x="1012" y="657" type="line"/>
      <point x="1012" y="904" type="line"/>
      <point x="743" y="904" type="line"/>
      <point x="743" y="1088" type="line" smooth="yes"/>
      <point x="743" y="1185"/>
      <point x="799" y="1236"/>
      <point x="898" y="1236" type="curve" smooth="yes"/>
      <point x="927" y="1236"/>
      <point x="993" y="1229"/>
      <point x="1065" y="1206" type="curve"/>
      <point x="1089" y="1206" type="line"/>
      <point x="1228" y="1471" type="line"/>
      <point x="1212" y="1477"/>
      <point x="1035" y="1592"/>
      <point x="784" y="1592" type="curve" smooth="yes"/>
      <point x="431" y="1592"/>
      <point x="287" y="1395"/>
      <point x="287" y="994" type="curve" smooth="yes"/>
      <point x="287" y="904" type="line"/>
      <point x="92" y="904" type="line"/>
      <point x="92" y="657" type="line"/>
      <point x="287" y="657" type="line"/>
      <point x="287" y="309" type="line"/>
      <point x="107" y="283" type="line"/>
    </contour>
  </outline>
</glyph>
<glyph name="yen" format="1">
  <advance width="1339"/>
  <unicode hex="00A5"/>
  <outline>
    <contour>
      <point x="143" y="230" type="line"/>
      <point x="1166" y="230" type="line"/>
      <point x="1166" y="389" type="line"/>
      <point x="143" y="389" type="line"/>
    </contour>
    <contour>
      <point x="143" y="547" type="line"/>
      <point x="1166" y="547" type="line"/>
      <point x="1166" y="706" type="line"/>
      <point x="143" y="706" type="line"/>
    </contour>
    <component base="Y"/>
  </outline>
</glyph>
<glyph name="copyright" format="1">
  <advance width="1837"/>
  <unicode hex="00A9"/>
  <outline>
    <contour>
      <point x="979" y="260" type="curve" smooth="yes"/>
      <point x="1079" y="260"/>
      <point x="1180" y="287"/>
      <point x="1263" y="339" type="curve"/>
      <point x="1209" y="488" type="line"/>
      <point x="1140" y="454"/>
      <point x="1064" y="433"/>
      <point x="999" y="433" type="curve" smooth="yes"/>
      <point x="850" y="433"/>
      <point x="731" y="522"/>
      <point x="731" y="743" type="curve" smooth="yes"/>
      <point x="731" y="971"/>
      <point x="850" y="1057"/>
      <point x="1001" y="1057" type="curve" smooth="yes"/>
      <point x="1071" y="1057"/>
      <point x="1140" y="1038"/>
      <point x="1214" y="1005" type="curve"/>
      <point x="1265" y="1153" type="line"/>
      <point x="1182" y="1203"/>
      <point x="1082" y="1229"/>
      <point x="982" y="1229" type="curve" smooth="yes"/>
      <point x="749" y="1229"/>
      <point x="502" y="1093"/>
      <point x="502" y="744" type="curve" smooth="yes"/>
      <point x="502" y="400"/>
      <point x="746" y="260"/>
    </contour>
    <contour>
      <point x="957" y="122" type="curve" smooth="yes"/>
      <point x="617" y="122"/>
      <point x="366" y="418"/>
      <point x="366" y="729" type="curve" smooth="yes"/>
      <point x="366" y="1040"/>
      <point x="617" y="1336"/>
      <point x="957" y="1336" type="curve" smooth="yes"/>
      <point x="1295" y="1336"/>
      <point x="1545" y="1040"/>
      <point x="1545" y="729" type="curve" smooth="yes"/>
      <point x="1545" y="418"/>
      <point x="1295" y="122"/>
    </contour>
    <contour>
      <point x="957" y="-72" type="curve" smooth="yes"/>
      <point x="1416" y="-72"/>
      <point x="1753" y="312"/>
      <point x="1753" y="729" type="curve" smooth="yes"/>
      <point x="1753" y="1145"/>
      <point x="1416" y="1528"/>
      <point x="957" y="1528" type="curve" smooth="yes"/>
      <point x="496" y="1528"/>
      <point x="155" y="1145"/>
      <point x="155" y="729" type="curve" smooth="yes"/>
      <point x="155" y="312"/>
      <point x="496" y="-72"/>
    </contour>
  </outline>
</glyph>
<glyph name="guillemotleft" format="1">
  <advance width="1377"/>
  <unicode hex="00AB"/>
  <outline>
    <contour>
      <point x="399" y="120" type="line"/>
      <point x="734" y="120" type="line"/>
      <point x="499" y="586" type="line"/>
      <point x="738" y="1054" type="line"/>
      <point x="399" y="1054" type="line"/>
      <point x="147" y="583" type="line"/>
    </contour>
    <contour>
      <point x="919" y="120" type="line"/>
      <point x="1255" y="120" type="line"/>
      <point x="1021" y="586" type="line"/>
      <point x="1256" y="1054" type="line"/>
      <point x="919" y="1054" type="line"/>
      <point x="668" y="583" type="line"/>
    </contour>
  </outline>
</glyph>
<glyph name="uni00AD" format="1">
  <advance width="1161"/>
  <unicode hex="00AD"/>
  <outline>
    <contour>
      <point x="254" y="-138" type="line"/>
      <point x="890" y="-138" type="line"/>
      <point x="890" y="147" type="line"/>
      <point x="254" y="147" type="line"/>
    </contour>
  </outline>
</glyph>
<glyph name="plusminus" format="1">
  <advance width="1136"/>
  <unicode hex="00B1"/>
  <outline>
    <contour>
      <point x="438" y="385" type="line"/>
      <point x="728" y="385" type="line"/>
      <point x="728" y="681" type="line"/>
      <point x="1079" y="681" type="line"/>
      <point x="1079" y="969" type="line"/>
      <point x="730" y="969" type="line"/>
      <point x="730" y="1285" type="line"/>
      <point x="438" y="1285" type="line"/>
      <point x="438" y="969" type="line"/>
      <point x="92" y="969" type="line"/>
      <point x="92" y="681" type="line"/>
      <point x="438" y="681" type="line"/>
    </contour>
    <contour>
      <point x="105" y="0" type="line"/>
      <point x="1048" y="0" type="line"/>
      <point x="1048" y="245" type="line"/>
      <point x="105" y="245" type="line"/>
    </contour>
  </outline>
</glyph>
<glyph name="uni00B3" format="1">
  <advance width="887"/>
  <unicode hex="00B3"/>
  <outline>
    <contour>
      <point x="427" y="550" type="curve" smooth="yes"/>
      <point x="628" y="550"/>
      <point x="805" y="643"/>
      <point x="805" y="838" type="curve" smooth="yes"/>
      <point x="805" y="928"/>
      <point x="757" y="1030"/>
      <point x="653" y="1047" type="curve"/>
      <point x="762" y="1065"/>
      <point x="780" y="1157"/>
      <point x="783" y="1228" type="curve" smooth="yes"/>
      <point x="783" y="1400"/>
      <point x="643" y="1463"/>
      <point x="484" y="1463" type="curve" smooth="yes"/>
      <point x="370" y="1463"/>
      <point x="246" y="1432"/>
      <point x="148" y="1381" type="curve"/>
      <point x="212" y="1234" type="line"/>
      <point x="292" y="1272"/>
      <point x="379" y="1289"/>
      <point x="436" y="1289" type="curve" smooth="yes"/>
      <point x="514" y="1289"/>
      <point x="575" y="1264"/>
      <point x="575" y="1199" type="curve" smooth="yes"/>
      <point x="575" y="1152"/>
      <point x="578" y="1126"/>
      <point x="438" y="1126" type="curve" smooth="yes"/>
      <point x="311" y="1126" type="line"/>
      <point x="311" y="955" type="line"/>
      <point x="434" y="957" type="line"/>
      <point x="565" y="957"/>
      <point x="599" y="912"/>
      <point x="599" y="849" type="curve" smooth="yes"/>
      <point x="599" y="760"/>
      <point x="511" y="725"/>
      <point x="417" y="725" type="curve" smooth="yes"/>
      <point x="348" y="725"/>
      <point x="261" y="749"/>
      <point x="203" y="790" type="curve"/>
      <point x="134" y="614" type="line"/>
      <point x="229" y="571"/>
      <point x="333" y="550"/>
    </contour>
  </outline>
</glyph>
<glyph name="ordmasculine" format="1">
  <advance width="1093"/>
  <unicode hex="00BA"/>
  <outline>
    <contour>
      <point x="536" y="831" type="curve" smooth="yes"/>
      <point x="428" y="831"/>
      <point x="376" y="907"/>
      <point x="376" y="1071" type="curve" smooth="yes"/>
      <point x="376" y="1237"/>
      <point x="428" y="1315"/>
      <point x="536" y="1315" type="curve" smooth="yes"/>
      <point x="649" y="1315"/>
      <point x="703" y="1237"/>
      <point x="703" y="1071" type="curve" smooth="yes"/>
      <point x="703" y="907"/>
      <point x="648" y="831"/>
    </contour>
    <contour>
      <point x="536" y="569" type="curve" smooth="yes"/>
      <point x="854" y="569"/>
      <point x="1026" y="743"/>
      <point x="1026" y="1071" type="curve" smooth="yes"/>
      <point x="1026" y="1400"/>
      <point x="850" y="1575"/>
      <point x="536" y="1575" type="curve" smooth="yes"/>
      <point x="222" y="1575"/>
      <point x="46" y="1401"/>
      <point x="46" y="1071" type="curve" smooth="yes"/>
      <point x="46" y="744"/>
      <point x="222" y="569"/>
    </contour>
  </outline>
</glyph>
<glyph name="guillemotright" format="1">
  <advance width="1063"/>
  <unicode hex="00BB"/>
  <outline>
    <contour>
      <point x="248" y="124" type="line"/>
      <point x="581" y="589" type="line"/>
      <point x="256" y="1038" type="line"/>
      <point x="66" y="1038" type="line"/>
      <point x="299" y="577" type="line"/>
      <point x="46" y="124" type="line"/>
    </contour>
    <contour>
      <point x="679" y="124" type="line"/>
      <point x="1017" y="589" type="line"/>
      <point x="692" y="1038" type="line"/>
      <point x="507" y="1038" type="line"/>
      <point x="731" y="577" type="line"/>
      <point x="482" y="124" type="line"/>
    </contour>
  </outline>
</glyph>
<glyph name="onequarter" format="1">
  <advance width="1851"/>
  <unicode hex="00BC"/>
  <outline>
    <contour>
      <point x="101" y="604" type="line"/>
      <point x="611" y="604" type="line"/>
      <point x="611" y="787" type="line"/>
      <point x="477" y="787" type="line"/>
      <point x="477" y="1523" type="line"/>
      <point x="296" y="1523" type="line"/>
      <point x="276" y="1525"/>
      <point x="143" y="1433"/>
      <point x="79" y="1403" type="curve"/>
      <point x="79" y="1221" type="line"/>
      <point x="83" y="1219"/>
      <point x="227" y="1284"/>
      <point x="262" y="1297" type="curve"/>
      <point x="262" y="787" type="line"/>
      <point x="101" y="787" type="line"/>
    </contour>
    <contour>
      <point x="1434" y="0" type="line"/>
      <point x="1632" y="0" type="line"/>
      <point x="1632" y="171" type="line"/>
      <point x="1759" y="171" type="line"/>
      <point x="1767" y="328" type="line"/>
      <point x="1630" y="328" type="line"/>
      <point x="1630" y="887" type="line"/>
      <point x="1424" y="887" type="line"/>
      <point x="1065" y="332" type="line"/>
      <point x="1065" y="171" type="line"/>
      <point x="1434" y="171" type="line"/>
    </contour>
    <contour>
      <point x="318" y="0" type="line"/>
      <point x="593" y="0" type="line"/>
      <point x="1634" y="1523" type="line"/>
      <point x="1371" y="1523" type="line"/>
    </contour>
    <contour>
      <point x="1250" y="328" type="line"/>
      <point x="1435" y="618" type="line"/>
      <point x="1435" y="328" type="line"/>
    </contour>
  </outline>
</glyph>
<glyph name="onehalf" format="1">
  <advance width="1976"/>
  <unicode hex="00BD"/>
  <outline>
    <contour>
      <point x="1339" y="0" type="line"/>
      <point x="1897" y="0" type="line"/>
      <point x="1903" y="172" type="line"/>
      <point x="1569" y="172" type="line"/>
      <point x="1746" y="344" type="line" smooth="yes"/>
      <point x="1843" y="439"/>
      <point x="1883" y="550"/>
      <point x="1883" y="632" type="curve" smooth="yes"/>
      <point x="1883" y="777"/>
      <point x="1771" y="892"/>
      <point x="1593" y="892" type="curve" smooth="yes"/>
      <point x="1417" y="892"/>
      <point x="1312" y="793"/>
      <point x="1241" y="718" type="curve"/>
      <point x="1364" y="587" type="line"/>
      <point x="1415" y="647"/>
      <point x="1491" y="700"/>
      <point x="1574" y="700" type="curve" smooth="yes"/>
      <point x="1629" y="700"/>
      <point x="1671" y="662"/>
      <point x="1671" y="614" type="curve" smooth="yes"/>
      <point x="1671" y="576"/>
      <point x="1640" y="522"/>
      <point x="1614" y="497" type="curve" smooth="yes"/>
      <point x="1614" y="497"/>
      <point x="1289" y="166"/>
      <point x="1289" y="166" type="curve"/>
    </contour>
    <contour>
      <point x="100" y="604" type="line"/>
      <point x="610" y="604" type="line"/>
      <point x="610" y="787" type="line"/>
      <point x="476" y="787" type="line"/>
      <point x="476" y="1523" type="line"/>
      <point x="294" y="1523" type="line"/>
      <point x="275" y="1525"/>
      <point x="142" y="1433"/>
      <point x="78" y="1403" type="curve"/>
      <point x="78" y="1221" type="line"/>
      <point x="82" y="1219"/>
      <point x="226" y="1284"/>
      <point x="261" y="1296" type="curve"/>
      <point x="261" y="787" type="line"/>
      <point x="100" y="787" type="line"/>
    </contour>
    <contour>
      <point x="318" y="0" type="line"/>
      <point x="593" y="0" type="line"/>
      <point x="1634" y="1523" type="line"/>
      <point x="1371" y="1523" type="line"/>
    </contour>
  </outline>
</glyph>
<glyph name="threequarters" format="1">
  <advance width="1849"/>
  <unicode hex="00BE"/>
  <outline>
    <contour>
      <point x="332" y="626" type="curve" smooth="yes"/>
      <point x="535" y="626"/>
      <point x="712" y="717"/>
      <point x="712" y="907" type="curve" smooth="yes"/>
      <point x="712" y="1001"/>
      <point x="661" y="1102"/>
      <point x="559" y="1116" type="curve"/>
      <point x="664" y="1133"/>
      <point x="692" y="1215"/>
      <point x="694" y="1295" type="curve" smooth="yes"/>
      <point x="694" y="1470"/>
      <point x="553" y="1531"/>
      <point x="390" y="1531" type="curve" smooth="yes"/>
      <point x="269" y="1531"/>
      <point x="139" y="1498"/>
      <point x="41" y="1445" type="curve"/>
      <point x="104" y="1304" type="line"/>
      <point x="179" y="1344"/>
      <point x="269" y="1365"/>
      <point x="340" y="1365" type="curve" smooth="yes"/>
      <point x="425" y="1365"/>
      <point x="493" y="1339"/>
      <point x="493" y="1270" type="curve" smooth="yes"/>
      <point x="493" y="1222"/>
      <point x="501" y="1194"/>
      <point x="349" y="1194" type="curve" smooth="yes"/>
      <point x="213" y="1194" type="line"/>
      <point x="213" y="1031" type="line"/>
      <point x="356" y="1033" type="line"/>
      <point x="475" y="1033"/>
      <point x="514" y="982"/>
      <point x="514" y="921" type="curve" smooth="yes"/>
      <point x="514" y="833"/>
      <point x="421" y="794"/>
      <point x="320" y="794" type="curve" smooth="yes"/>
      <point x="237" y="794"/>
      <point x="137" y="834"/>
      <point x="96" y="866" type="curve"/>
      <point x="25" y="695" type="line"/>
      <point x="119" y="648"/>
      <point x="228" y="626"/>
    </contour>
    <contour>
      <point x="1425" y="0" type="line"/>
      <point x="1623" y="0" type="line"/>
      <point x="1623" y="171" type="line"/>
      <point x="1750" y="171" type="line"/>
      <point x="1759" y="328" type="line"/>
      <point x="1622" y="328" type="line"/>
      <point x="1622" y="887" type="line"/>
      <point x="1415" y="887" type="line"/>
      <point x="1056" y="332" type="line"/>
      <point x="1056" y="171" type="line"/>
      <point x="1425" y="171" type="line"/>
    </contour>
    <contour>
      <point x="308" y="0" type="line"/>
      <point x="582" y="0" type="line"/>
      <point x="1623" y="1523" type="line"/>
      <point x="1361" y="1523" type="line"/>
    </contour>
    <contour>
      <point x="1241" y="328" type="line"/>
      <point x="1426" y="618" type="line"/>
      <point x="1426" y="328" type="line"/>
    </contour>
  </outline>
</glyph>
<glyph name="ae" format="1">
  <advance width="1782"/>
  <unicode hex="00E6"/>
  <outline>
    <contour>
      <point x="1285" y="1082" type="move" name="top"/>
    </contour>
    <contour>
      <point x="1233" y="-20" type="curve" smooth="yes"/>
      <point x="1425" y="-20"/>
      <point x="1599" y="38"/>
      <point x="1681" y="123" type="curve"/>
      <point x="1622" y="336" type="line"/>
      <point x="1540" y="283"/>
      <point x="1420" y="236"/>
      <point x="1279" y="236" type="curve" smooth="yes"/>
      <point x="1194" y="236"/>
      <point x="1074" y="232"/>
      <point x="1048" y="409" type="curve"/>
      <point x="1450" y="414"/>
      <point x="1695" y="492"/>
      <point x="1697" y="699" type="curve" smooth="yes"/>
      <point x="1698" y="862"/>
      <point x="1593" y="1102"/>
      <point x="1257" y="1102" type="curve" smooth="yes"/>
      <point x="1074" y="1102"/>
      <point x="973" y="1031"/>
      <point x="908" y="944" type="curve"/>
      <point x="876" y="1033"/>
      <point x="760" y="1100"/>
      <point x="601" y="1100" type="curve" smooth="yes"/>
      <point x="455" y="1100"/>
      <point x="279" y="1056"/>
      <point x="114" y="980" type="curve"/>
      <point x="181" y="741" type="line"/>
      <point x="303" y="782"/>
      <point x="426" y="819"/>
      <point x="520" y="819" type="curve" smooth="yes"/>
      <point x="609" y="819"/>
      <point x="697" y="784"/>
      <point x="697" y="694" type="curve" smooth="yes"/>
      <point x="697" y="632" type="line"/>
      <point x="712" y="630"/>
      <point x="555" y="631"/>
      <point x="564" y="631" type="curve" smooth="yes"/>
      <point x="374" y="632"/>
      <point x="70" y="582"/>
      <point x="70" y="308" type="curve" smooth="yes"/>
      <point x="70" y="84"/>
      <point x="212" y="-17"/>
      <point x="422" y="-15" type="curve"/>
      <point x="619" y="-15"/>
      <point x="755" y="41"/>
      <point x="839" y="120" type="curve"/>
      <point x="913" y="53"/>
      <point x="991" y="-20"/>
    </contour>
    <contour>
      <point x="556" y="197" type="curve" smooth="yes"/>
      <point x="493" y="188"/>
      <point x="429" y="229"/>
      <point x="433" y="321" type="curve" smooth="yes"/>
      <point x="435" y="438"/>
      <point x="562" y="456"/>
      <point x="656" y="456" type="curve" smooth="yes"/>
      <point x="648" y="456"/>
      <point x="716" y="457"/>
      <point x="702" y="458" type="curve"/>
      <point x="702" y="421"/>
      <point x="730" y="306"/>
      <point x="752" y="258" type="curve" smooth="yes"/>
      <point x="725" y="256"/>
      <point x="676" y="213"/>
    </contour>
    <contour>
      <point x="1050" y="619" type="curve"/>
      <point x="1060" y="802"/>
      <point x="1188" y="858"/>
      <point x="1265" y="858" type="curve" smooth="yes"/>
      <point x="1424" y="858"/>
      <point x="1448" y="793"/>
      <point x="1444" y="731" type="curve" smooth="yes"/>
      <point x="1441" y="662"/>
      <point x="1358" y="627"/>
    </contour>
  </outline>
</glyph>
<glyph name="eth" format="1">
  <advance width="1236"/>
  <unicode hex="00F0"/>
  <outline>
    <contour>
      <point x="631" y="-26" type="curve" smooth="yes"/>
      <point x="990" y="-26"/>
      <point x="1162" y="175"/>
      <point x="1175" y="500" type="curve" smooth="yes"/>
      <point x="1182" y="690"/>
      <point x="1126" y="830"/>
      <point x="1037" y="957" type="curve" smooth="yes"/>
      <point x="952" y="1078"/>
      <point x="836" y="1177"/>
      <point x="733" y="1269" type="curve"/>
      <point x="963" y="1356" type="line"/>
      <point x="820" y="1586" type="line"/>
      <point x="523" y="1466" type="line"/>
      <point x="422" y="1556" type="line"/>
      <point x="21" y="1556" type="line"/>
      <point x="240" y="1351" type="line"/>
      <point x="88" y="1289" type="line"/>
      <point x="206" y="1065" type="line"/>
      <point x="438" y="1150" type="line"/>
      <point x="492" y="1107"/>
      <point x="592" y="1009"/>
      <point x="649" y="928" type="curve"/>
      <point x="614" y="941"/>
      <point x="511" y="934"/>
      <point x="539" y="934" type="curve" smooth="yes"/>
      <point x="241" y="934"/>
      <point x="75" y="748"/>
      <point x="75" y="466" type="curve" smooth="yes"/>
      <point x="75" y="156"/>
      <point x="320" y="-26"/>
    </contour>
    <contour>
      <point x="635" y="281" type="curve" smooth="yes"/>
      <point x="530" y="281"/>
      <point x="459" y="345"/>
      <point x="459" y="480" type="curve" smooth="yes"/>
      <point x="459" y="604"/>
      <point x="516" y="679"/>
      <point x="630" y="679" type="curve" smooth="yes"/>
      <point x="737" y="679"/>
      <point x="802" y="601"/>
      <point x="802" y="466" type="curve" smooth="yes"/>
      <point x="802" y="350"/>
      <point x="737" y="281"/>
    </contour>
  </outline>
</glyph>
<glyph name="oslash" format="1">
  <advance width="1282"/>
  <unicode hex="00F8"/>
  <outline>
    <contour>
      <point x="340" y="-186" type="line"/>
      <point x="1091" y="1214" type="line"/>
      <point x="1002" y="1272" type="line"/>
      <point x="256" y="-126" type="line"/>
    </contour>
    <component base="o"/>
  </outline>
</glyph>
<glyph name="thorn" format="1">
  <advance width="1425"/>
  <unicode hex="00FE"/>
  <outline>
    <contour>
      <point x="234" y="-407" type="line"/>
      <point x="689" y="-407" type="line"/>
      <point x="689" y="93" type="line"/>
      <point x="734" y="35"/>
      <point x="810" y="-20"/>
      <point x="932" y="-20" type="curve" smooth="yes"/>
      <point x="1230" y="-20"/>
      <point x="1366" y="222"/>
      <point x="1366" y="553" type="curve" smooth="yes"/>
      <point x="1366" y="855"/>
      <point x="1222" y="1100"/>
      <point x="939" y="1100" type="curve" smooth="yes"/>
      <point x="802" y="1100"/>
      <point x="724" y="1042"/>
      <point x="676" y="985" type="curve"/>
      <point x="687" y="1171" type="line"/>
      <point x="687" y="1560" type="line"/>
      <point x="234" y="1540" type="line"/>
    </contour>
    <contour>
      <point x="808" y="260" type="curve" smooth="yes"/>
      <point x="713" y="260"/>
      <point x="705" y="296"/>
      <point x="689" y="312" type="curve"/>
      <point x="689" y="569" type="line" smooth="yes"/>
      <point x="689" y="815"/>
      <point x="788" y="819"/>
      <point x="819" y="819" type="curve" smooth="yes"/>
      <point x="843" y="819"/>
      <point x="905" y="814"/>
      <point x="905" y="554" type="curve" smooth="yes"/>
      <point x="905" y="310"/>
      <point x="833" y="260"/>
    </contour>
  </outline>
</glyph>
<glyph name="Eng" format="1">
  <advance width="1703"/>
  <unicode hex="014A"/>
  <outline>
    <contour>
      <point x="1547" y="1456" type="line"/>
      <point x="1091" y="1456" type="line"/>
      <point x="1091" y="1034" type="line"/>
      <point x="1110" y="676" type="line"/>
      <point x="605" y="1456" type="line"/>
      <point x="154" y="1456" type="line"/>
      <point x="154" y="0" type="line"/>
      <point x="622" y="0" type="line"/>
      <point x="622" y="412" type="line"/>
      <point x="605" y="720" type="line"/>
      <point x="1091" y="-26" type="line"/>
      <point x="1090" y="-266"/>
      <point x="1064" y="-274"/>
      <point x="912" y="-274" type="curve"/>
      <point x="951" y="-544" type="line"/>
      <point x="1432" y="-518"/>
      <point x="1547" y="-377"/>
      <point x="1547" y="-85" type="curve" smooth="yes"/>
    </contour>
  </outline>
</glyph>
<glyph name="OE" format="1">
  <advance width="2164"/>
  <unicode hex="0152"/>
  <outline>
    <contour>
      <point x="722" y="-14" type="curve" smooth="yes"/>
      <point x="856" y="-14"/>
      <point x="924" y="-15"/>
      <point x="1007" y="-6" type="curve"/>
      <point x="1007" y="0" type="line"/>
      <point x="2016" y="0" type="line"/>
      <point x="2017" y="305" type="line"/>
      <point x="1368" y="305" type="line"/>
      <point x="1368" y="594" type="line"/>
      <point x="1971" y="594" type="line"/>
      <point x="1971" y="888" type="line"/>
      <point x="1368" y="888" type="line"/>
      <point x="1368" y="1162" type="line"/>
      <point x="1970" y="1162" type="line"/>
      <point x="1995" y="1456" type="line"/>
      <point x="1007" y="1456" type="line"/>
      <point x="1007" y="1479" type="line"/>
      <point x="924" y="1488"/>
      <point x="861" y="1487"/>
      <point x="721" y="1487" type="curve" smooth="yes"/>
      <point x="303" y="1487"/>
      <point x="33" y="1234"/>
      <point x="33" y="732" type="curve" smooth="yes"/>
      <point x="33" y="237"/>
      <point x="308" y="-14"/>
    </contour>
    <contour>
      <point x="724" y="307" type="curve" smooth="yes"/>
      <point x="542" y="307"/>
      <point x="434" y="461"/>
      <point x="434" y="731" type="curve" smooth="yes"/>
      <point x="434" y="1004"/>
      <point x="537" y="1166"/>
      <point x="722" y="1166" type="curve" smooth="yes"/>
      <point x="909" y="1166"/>
      <point x="1006" y="1005"/>
      <point x="1006" y="731" type="curve" smooth="yes"/>
      <point x="1006" y="461"/>
      <point x="905" y="307"/>
    </contour>
  </outline>
</glyph>
<glyph name="oe" format="1">
  <advance width="1946"/>
  <unicode hex="0153"/>
  <outline>
    <contour>
      <point x="617" y="-22" type="curve" smooth="yes"/>
      <point x="828" y="-22"/>
      <point x="933" y="41"/>
      <point x="1000" y="123" type="curve"/>
      <point x="1071" y="43"/>
      <point x="1207" y="-20"/>
      <point x="1388" y="-20" type="curve" smooth="yes"/>
      <point x="1588" y="-20"/>
      <point x="1772" y="40"/>
      <point x="1853" y="130" type="curve"/>
      <point x="1757" y="348" type="line"/>
      <point x="1736" y="348" type="line"/>
      <point x="1656" y="294"/>
      <point x="1542" y="260"/>
      <point x="1439" y="260" type="curve" smooth="yes"/>
      <point x="1326" y="260"/>
      <point x="1247" y="319"/>
      <point x="1228" y="393" type="curve"/>
      <point x="1843" y="393" type="line"/>
      <point x="1843" y="393"/>
      <point x="1858" y="443"/>
      <point x="1858" y="565" type="curve" smooth="yes"/>
      <point x="1842" y="867"/>
      <point x="1730" y="1100"/>
      <point x="1341" y="1100" type="curve" smooth="yes"/>
      <point x="1199" y="1100"/>
      <point x="1075" y="1062"/>
      <point x="989" y="974" type="curve"/>
      <point x="925" y="1049"/>
      <point x="797" y="1100"/>
      <point x="617" y="1100" type="curve" smooth="yes"/>
      <point x="267" y="1100"/>
      <point x="61" y="868"/>
      <point x="61" y="547" type="curve" smooth="yes"/>
      <point x="61" y="211"/>
      <point x="262" y="-22"/>
    </contour>
    <contour>
      <point x="643" y="260" type="curve" smooth="yes"/>
      <point x="577" y="260"/>
      <point x="519" y="312"/>
      <point x="519" y="547" type="curve" smooth="yes"/>
      <point x="519" y="770"/>
      <point x="573" y="819"/>
      <point x="643" y="819" type="curve" smooth="yes"/>
      <point x="712" y="819"/>
      <point x="767" y="770"/>
      <point x="767" y="547" type="curve" smooth="yes"/>
      <point x="767" y="315"/>
      <point x="707" y="260"/>
    </contour>
    <contour>
      <point x="1229" y="624" type="line"/>
      <point x="1232" y="785"/>
      <point x="1286" y="824"/>
      <point x="1364" y="824" type="curve" smooth="yes"/>
      <point x="1437" y="824"/>
      <point x="1477" y="779"/>
      <point x="1476" y="624" type="curve"/>
    </contour>
  </outline>
</glyph>
<glyph name="florin" format="1">
  <advance width="1256"/>
  <unicode hex="0192"/>
  <outline>
    <contour>
      <point x="410" y="1283" type="curve" smooth="yes"/>
      <point x="369" y="1006" type="line"/>
      <point x="126" y="1006" type="line"/>
      <point x="111" y="937" type="line"/>
      <point x="359" y="937" type="line"/>
      <point x="253" y="96" type="line" smooth="yes"/>
      <point x="197" y="-315"/>
      <point x="148" y="-307"/>
      <point x="-146" y="-254" type="curve"/>
      <point x="-181" y="-383" type="line"/>
      <point x="255" y="-549"/>
      <point x="482" y="-448"/>
      <point x="572" y="110" type="curve" smooth="yes"/>
      <point x="680" y="937" type="line"/>
      <point x="1038" y="937" type="line"/>
      <point x="1053" y="1006" type="line"/>
      <point x="696" y="1006" type="line"/>
      <point x="754" y="1347" type="line" smooth="yes"/>
      <point x="782" y="1513"/>
      <point x="867" y="1559"/>
      <point x="954" y="1568" type="curve" smooth="yes"/>
      <point x="1129" y="1583"/>
      <point x="1161" y="1467"/>
      <point x="1184" y="1310" type="curve"/>
      <point x="1345" y="1310" type="line"/>
      <point x="1332" y="1583"/>
      <point x="1232" y="1784"/>
      <point x="943" y="1784" type="curve" smooth="yes"/>
      <point x="657" y="1784"/>
      <point x="462" y="1628"/>
    </contour>
  </outline>
</glyph>
<glyph name="circumflex" format="1">
  <advance width="958"/>
  <unicode hex="02C6"/>
  <outline>
    <contour>
      <point x="456" y="1082" type="move" name="_top"/>
    </contour>
    <contour>
      <point x="56" y="1336" type="line"/>
      <point x="391" y="1336" type="line"/>
      <point x="460" y="1533" type="line"/>
      <point x="529" y="1336" type="line"/>
      <point x="865" y="1336" type="line"/>
      <point x="644" y="1760" type="line"/>
      <point x="277" y="1760" type="line"/>
    </contour>
  </outline>
</glyph>
<glyph name="caron" format="1">
  <advance width="993"/>
  <unicode hex="02C7"/>
  <outline>
    <contour>
      <point x="460" y="1082" type="move" name="_top"/>
    </contour>
    <contour>
      <point x="279" y="1299" type="line"/>
      <point x="646" y="1299" type="line"/>
      <point x="868" y="1723" type="line"/>
      <point x="532" y="1723" type="line"/>
      <point x="463" y="1550" type="line"/>
      <point x="394" y="1723" type="line"/>
      <point x="58" y="1723" type="line"/>
    </contour>
  </outline>
</glyph>
<glyph name="uni02C9" format="1">
  <advance width="600"/>
  <unicode hex="02C9"/>
  <outline>
    <contour>
      <point x="282" y="1089" type="move" name="_top"/>
    </contour>
    <contour>
      <point x="-100" y="1369" type="line"/>
      <point x="678" y="1369" type="line"/>
      <point x="678" y="1579" type="line"/>
      <point x="-100" y="1579" type="line"/>
    </contour>
  </outline>
</glyph>
<glyph name="breve" format="1">
  <advance width="972"/>
  <unicode hex="02D8"/>
  <outline>
    <contour>
      <point x="458" y="1089" type="move" name="_top"/>
    </contour>
    <contour>
      <point x="460" y="1340" type="curve" smooth="yes"/>
      <point x="665" y="1340"/>
      <point x="785" y="1458"/>
      <point x="785" y="1630" type="curve"/>
      <point x="555" y="1630" type="line"/>
      <point x="555" y="1592"/>
      <point x="525" y="1562"/>
      <point x="460" y="1562" type="curve" smooth="yes"/>
      <point x="394" y="1562"/>
      <point x="363" y="1592"/>
      <point x="363" y="1630" type="curve"/>
      <point x="130" y="1630" type="line"/>
      <point x="130" y="1458"/>
      <point x="253" y="1340"/>
    </contour>
  </outline>
</glyph>
<glyph name="ring" format="1">
  <advance width="875"/>
  <unicode hex="02DA"/>
  <outline>
    <contour>
      <point x="405" y="1089" type="move" name="_top"/>
    </contour>
    <contour>
      <point x="407" y="1322" type="curve" smooth="yes"/>
      <point x="341" y="1322"/>
      <point x="321" y="1371"/>
      <point x="321" y="1430" type="curve" smooth="yes"/>
      <point x="321" y="1481"/>
      <point x="348" y="1538"/>
      <point x="407" y="1538" type="curve" smooth="yes"/>
      <point x="470" y="1538"/>
      <point x="499" y="1481"/>
      <point x="499" y="1430" type="curve" smooth="yes"/>
      <point x="499" y="1374"/>
      <point x="470" y="1322"/>
    </contour>
    <contour>
      <point x="407" y="1188" type="curve" smooth="yes"/>
      <point x="567" y="1188"/>
      <point x="658" y="1307"/>
      <point x="658" y="1431" type="curve" smooth="yes"/>
      <point x="658" y="1552"/>
      <point x="571" y="1669"/>
      <point x="407" y="1669" type="curve" smooth="yes"/>
      <point x="248" y="1669"/>
      <point x="161" y="1555"/>
      <point x="161" y="1431" type="curve" smooth="yes"/>
      <point x="161" y="1307"/>
      <point x="249" y="1188"/>
    </contour>
  </outline>
</glyph>
<glyph name="ogonek" format="1">
  <advance width="766"/>
  <unicode hex="02DB"/>
  <outline>
    <contour>
      <point x="475" y="0" type="move" name="_ogonek"/>
    </contour>
    <contour>
      <point x="456" y="-463" type="curve" smooth="yes"/>
      <point x="531" y="-463"/>
      <point x="597" y="-446"/>
      <point x="676" y="-417" type="curve"/>
      <point x="665" y="-225" type="line"/>
      <point x="655" y="-233"/>
      <point x="585" y="-267"/>
      <point x="516" y="-267" type="curve" smooth="yes"/>
      <point x="477" y="-267"/>
      <point x="455" y="-218"/>
      <point x="455" y="-194" type="curve" smooth="yes"/>
      <point x="455" y="-145"/>
      <point x="456" y="-73"/>
      <point x="551" y="4" type="curve"/>
      <point x="409" y="4" type="line"/>
      <point x="348" y="-40"/>
      <point x="233" y="-106"/>
      <point x="233" y="-255" type="curve" smooth="yes"/>
      <point x="233" y="-404"/>
      <point x="352" y="-463"/>
    </contour>
  </outline>
</glyph>
<glyph name="hungarumlaut" format="1">
  <advance width="1078"/>
  <unicode hex="02DD"/>
  <outline>
    <contour>
      <point x="434" y="1089" type="move" name="_top"/>
    </contour>
    <contour>
      <point x="102" y="1265" type="line"/>
      <point x="309" y="1265" type="line"/>
      <point x="604" y="1700" type="line"/>
      <point x="274" y="1700" type="line"/>
    </contour>
    <contour>
      <point x="536" y="1265" type="line"/>
      <point x="729" y="1265" type="line"/>
      <point x="1039" y="1700" type="line"/>
      <point x="679" y="1700" type="line"/>
    </contour>
  </outline>
</glyph>
<glyph name="dblgravecomb" format="1">
  <advance width="1228"/>
  <unicode hex="030F"/>
  <outline>
    <contour>
      <point x="633" y="1089" type="move" name="_top"/>
    </contour>
    <contour>
      <point x="339" y="1265" type="line"/>
      <point x="532" y="1265" type="line"/>
      <point x="389" y="1700" type="line"/>
      <point x="29" y="1700" type="line"/>
    </contour>
    <contour>
      <point x="758" y="1265" type="line"/>
      <point x="966" y="1265" type="line"/>
      <point x="794" y="1700" type="line"/>
      <point x="464" y="1700" type="line"/>
    </contour>
  </outline>
</glyph>
<glyph name="breveinvertedcomb" format="1">
  <advance width="915"/>
  <unicode hex="0311"/>
  <outline>
    <contour>
      <point x="467" y="1089" type="move" name="_top"/>
    </contour>
    <contour>
      <point x="137" y="1340" type="curve"/>
      <point x="370" y="1340" type="line"/>
      <point x="370" y="1377"/>
      <point x="400" y="1408"/>
      <point x="467" y="1408" type="curve" smooth="yes"/>
      <point x="532" y="1408"/>
      <point x="562" y="1377"/>
      <point x="562" y="1340" type="curve"/>
      <point x="792" y="1340" type="line"/>
      <point x="792" y="1512"/>
      <point x="672" y="1630"/>
      <point x="467" y="1630" type="curve" smooth="yes"/>
      <point x="259" y="1630"/>
      <point x="137" y="1512"/>
    </contour>
  </outline>
</glyph>
<glyph name="pi" format="1">
  <advance width="1504"/>
  <unicode hex="03C0"/>
  <outline>
    <contour>
      <point x="1151" y="-13" type="curve" smooth="yes"/>
      <point x="1228" y="-13"/>
      <point x="1291" y="11"/>
      <point x="1324" y="43" type="curve"/>
      <point x="1324" y="168" type="line"/>
      <point x="1297" y="159"/>
      <point x="1289" y="169"/>
      <point x="1249" y="169" type="curve" smooth="yes"/>
      <point x="1211" y="169"/>
      <point x="1156" y="115"/>
      <point x="1156" y="70" type="curve" smooth="yes"/>
      <point x="1156" y="169"/>
      <point x="1155" y="602"/>
      <point x="1159" y="822" type="curve"/>
      <point x="1391" y="822" type="line"/>
      <point x="1391" y="1082" type="line"/>
      <point x="520" y="1082" type="line" smooth="yes"/>
      <point x="289" y="1082"/>
      <point x="216" y="907"/>
      <point x="216" y="694" type="curve"/>
      <point x="310" y="694" type="line"/>
      <point x="322" y="770"/>
      <point x="360" y="821"/>
      <point x="438" y="822" type="curve" smooth="yes"/>
      <point x="486" y="822" type="line"/>
      <point x="423" y="379" type="line" smooth="yes"/>
      <point x="394" y="169"/>
      <point x="256" y="108"/>
      <point x="228" y="108" type="curve"/>
      <point x="228" y="4" type="line"/>
      <point x="566" y="4"/>
      <point x="633" y="103"/>
      <point x="644" y="316" type="curve" smooth="yes"/>
      <point x="670" y="822" type="line"/>
      <point x="970" y="822" type="line"/>
      <point x="926" y="648"/>
      <point x="905" y="256"/>
      <point x="905" y="151" type="curve" smooth="yes"/>
      <point x="905" y="-24"/>
      <point x="1050" y="-13"/>
    </contour>
  </outline>
</glyph>
<glyph name="emdash" format="1">
  <advance width="2302"/>
  <unicode hex="2014"/>
  <outline>
    <contour>
      <point x="60" y="413" type="line"/>
      <point x="2242" y="413" type="line"/>
      <point x="2242" y="660" type="line"/>
      <point x="60" y="660" type="line"/>
    </contour>
  </outline>
</glyph>
<glyph name="quoteleft" format="1">
  <advance width="533"/>
  <unicode hex="2018"/>
  <outline>
    <contour>
      <point x="90" y="1041" type="line"/>
      <point x="449" y="1041" type="line"/>
      <point x="480" y="1583" type="line"/>
      <point x="221" y="1583" type="line"/>
    </contour>
  </outline>
</glyph>
<glyph name="quotedblleft" format="1">
  <advance width="1014"/>
  <unicode hex="201C"/>
  <outline>
    <contour>
      <point x="90" y="1041" type="line"/>
      <point x="449" y="1041" type="line"/>
      <point x="480" y="1583" type="line"/>
      <point x="221" y="1583" type="line"/>
    </contour>
    <contour>
      <point x="556" y="1041" type="line"/>
      <point x="915" y="1041" type="line"/>
      <point x="945" y="1583" type="line"/>
      <point x="688" y="1583" type="line"/>
    </contour>
  </outline>
</glyph>
<glyph name="quotedblright" format="1">
  <advance width="1014"/>
  <unicode hex="201D"/>
  <outline>
    <contour>
      <point x="90" y="1041" type="line"/>
      <point x="348" y="1041" type="line"/>
      <point x="480" y="1583" type="line"/>
      <point x="120" y="1583" type="line"/>
    </contour>
    <contour>
      <point x="556" y="1041" type="line"/>
      <point x="814" y="1041" type="line"/>
      <point x="945" y="1583" type="line"/>
      <point x="587" y="1583" type="line"/>
    </contour>
  </outline>
</glyph>
<glyph name="dagger" format="1">
  <advance width="1216"/>
  <unicode hex="2020"/>
  <outline>
    <contour>
      <point x="389" y="-225" type="line"/>
      <point x="820" y="-225" type="line"/>
      <point x="820" y="808" type="line"/>
      <point x="1166" y="808" type="line"/>
      <point x="1166" y="1071" type="line"/>
      <point x="833" y="1071" type="line"/>
      <point x="833" y="1442" type="line"/>
      <point x="389" y="1442" type="line"/>
      <point x="389" y="1071" type="line"/>
      <point x="72" y="1071" type="line"/>
      <point x="72" y="808" type="line"/>
      <point x="389" y="808" type="line"/>
    </contour>
  </outline>
</glyph>
<glyph name="bullet" format="1">
  <advance width="992"/>
  <unicode hex="2022"/>
  <outline>
    <contour>
      <point x="483" y="315" type="curve" smooth="yes"/>
      <point x="706" y="315"/>
      <point x="862" y="487"/>
      <point x="862" y="676" type="curve" smooth="yes"/>
      <point x="862" y="868"/>
      <point x="713" y="1031"/>
      <point x="491" y="1031" type="curve" smooth="yes"/>
      <point x="269" y="1031"/>
      <point x="111" y="860"/>
      <point x="111" y="671" type="curve" smooth="yes"/>
      <point x="111" y="481"/>
      <point x="259" y="315"/>
    </contour>
  </outline>
</glyph>
<glyph name="perthousand" format="1">
  <advance width="3714"/>
  <unicode hex="2030"/>
  <outline>
    <contour>
      <point x="3209" y="190" type="curve" smooth="yes"/>
      <point x="3115" y="190"/>
      <point x="3005" y="276"/>
      <point x="3005" y="382" type="curve" smooth="yes"/>
      <point x="3005" y="487"/>
      <point x="3115" y="571"/>
      <point x="3209" y="571" type="curve" smooth="yes"/>
      <point x="3302" y="571"/>
      <point x="3407" y="491"/>
      <point x="3407" y="382" type="curve" smooth="yes"/>
      <point x="3407" y="277"/>
      <point x="3303" y="190"/>
    </contour>
    <contour>
      <point x="3204" y="-57" type="curve" smooth="yes"/>
      <point x="3464" y="-57"/>
      <point x="3689" y="134"/>
      <point x="3689" y="379" type="curve" smooth="yes"/>
      <point x="3689" y="622"/>
      <point x="3467" y="801"/>
      <point x="3204" y="801" type="curve" smooth="yes"/>
      <point x="2943" y="801"/>
      <point x="2720" y="616"/>
      <point x="2720" y="379" type="curve" smooth="yes"/>
      <point x="2720" y="134"/>
      <point x="2939" y="-57"/>
    </contour>
    <component base="percent" xOffset="68"/>
  </outline>
</glyph>
<glyph name="guilsinglleft" format="1">
  <advance width="955"/>
  <unicode hex="2039"/>
  <outline>
    <contour>
      <point x="409" y="91" type="line"/>
      <point x="827" y="91" type="line"/>
      <point x="578" y="561" type="line"/>
      <point x="830" y="1058" type="line"/>
      <point x="419" y="1058" type="line"/>
      <point x="144" y="566" type="line"/>
    </contour>
  </outline>
</glyph>
<glyph name="fraction" format="1">
  <advance width="1255"/>
  <unicode hex="2044"/>
  <outline>
    <contour>
      <point x="0" y="0" type="line"/>
      <point x="254" y="0" type="line"/>
      <point x="1495" y="1633" type="line"/>
      <point x="1262" y="1633" type="line"/>
    </contour>
  </outline>
</glyph>
<glyph name="Euro" format="1">
  <advance width="1391"/>
  <unicode hex="20AC"/>
  <outline>
    <contour>
      <point x="-109" y="526" type="line"/>
      <point x="802" y="526" type="line"/>
      <point x="796" y="699" type="line"/>
      <point x="290" y="699" type="line"/>
      <point x="290" y="793" type="line"/>
      <point x="796" y="793" type="line"/>
      <point x="792" y="970" type="line"/>
      <point x="-118" y="970" type="line"/>
      <point x="-114" y="793" type="line"/>
      <point x="67" y="793" type="line"/>
      <point x="67" y="699" type="line"/>
      <point x="-117" y="699" type="line"/>
    </contour>
    <component base="C" xOffset="-17"/>
  </outline>
</glyph>
<glyph name="uni2113" format="1">
  <advance width="1404"/>
  <unicode hex="2113"/>
  <outline>
    <contour>
      <point x="614" y="-20" type="curve" smooth="yes"/>
      <point x="903" y="-19"/>
      <point x="1089" y="98"/>
      <point x="1089" y="98" type="curve"/>
      <point x="1058" y="326" type="line"/>
      <point x="959" y="292"/>
      <point x="860" y="261"/>
      <point x="790" y="259" type="curve" smooth="yes"/>
      <point x="708" y="256"/>
      <point x="654" y="291"/>
      <point x="686" y="417" type="curve" smooth="yes"/>
      <point x="772" y="766" type="line"/>
      <point x="696" y="636" type="line"/>
      <point x="1032" y="865" type="line" smooth="yes"/>
      <point x="1291" y="1042"/>
      <point x="1396" y="1120"/>
      <point x="1396" y="1330" type="curve" smooth="yes"/>
      <point x="1396" y="1573"/>
      <point x="1191" y="1713"/>
      <point x="981" y="1714" type="curve" smooth="yes"/>
      <point x="799" y="1715"/>
      <point x="614" y="1610"/>
      <point x="556" y="1396" type="curve" smooth="yes"/>
      <point x="336" y="585" type="line"/>
      <point x="408" y="713" type="line"/>
      <point x="62" y="464" type="line"/>
      <point x="125" y="334" type="line"/>
      <point x="349" y="483" type="line"/>
      <point x="312" y="521" type="line"/>
      <point x="214" y="154"/>
      <point x="366" y="-21"/>
    </contour>
    <contour>
      <point x="786" y="824" type="line"/>
      <point x="928" y="1397" type="line"/>
      <point x="954" y="1503"/>
      <point x="999" y="1528"/>
      <point x="1068" y="1528" type="curve" smooth="yes"/>
      <point x="1149" y="1507"/>
      <point x="1198" y="1430"/>
      <point x="1197" y="1331" type="curve" smooth="yes"/>
      <point x="1196" y="1209"/>
      <point x="1111" y="1051"/>
      <point x="939" y="926" type="curve" smooth="yes"/>
      <point x="949" y="926"/>
      <point x="727" y="774"/>
      <point x="731" y="788" type="curve" smooth="yes"/>
    </contour>
  </outline>
</glyph>
<glyph name="uni2126" format="1">
  <advance width="1761"/>
  <unicode hex="2126"/>
  <outline>
    <contour>
      <point x="101" y="0" type="line"/>
      <point x="794" y="0" type="line"/>
      <point x="794" y="260" type="line"/>
      <point x="609" y="379"/>
      <point x="534" y="581"/>
      <point x="534" y="747" type="curve" smooth="yes"/>
      <point x="534" y="947"/>
      <point x="644" y="1126"/>
      <point x="880" y="1126" type="curve" smooth="yes"/>
      <point x="1116" y="1126"/>
      <point x="1229" y="946"/>
      <point x="1229" y="747" type="curve" smooth="yes"/>
      <point x="1229" y="581"/>
      <point x="1153" y="380"/>
      <point x="966" y="260" type="curve"/>
      <point x="966" y="0" type="line"/>
      <point x="1660" y="0" type="line"/>
      <point x="1660" y="260" type="line"/>
      <point x="1212" y="260" type="line"/>
      <point x="1226" y="128" type="line"/>
      <point x="1527" y="278"/>
      <point x="1654" y="551"/>
      <point x="1654" y="794" type="curve" smooth="yes"/>
      <point x="1654" y="1149"/>
      <point x="1394" y="1493"/>
      <point x="880" y="1493" type="curve" smooth="yes"/>
      <point x="369" y="1493"/>
      <point x="106" y="1148"/>
      <point x="106" y="792" type="curve" smooth="yes"/>
      <point x="106" y="550"/>
      <point x="233" y="278"/>
      <point x="534" y="128" type="curve"/>
      <point x="548" y="260" type="line"/>
      <point x="101" y="260" type="line"/>
    </contour>
  </outline>
</glyph>
<glyph name="partialdiff" format="1">
  <advance width="1496"/>
  <unicode hex="2202"/>
  <outline>
    <contour>
      <point x="608" y="-21" type="curve" smooth="yes"/>
      <point x="1018" y="-21"/>
      <point x="1263" y="406"/>
      <point x="1263" y="944" type="curve" smooth="yes"/>
      <point x="1263" y="1309"/>
      <point x="998" y="1561"/>
      <point x="674" y="1561" type="curve" smooth="yes"/>
      <point x="551" y="1561"/>
      <point x="421" y="1524"/>
      <point x="292" y="1445" type="curve"/>
      <point x="363" y="1262" type="line"/>
      <point x="455" y="1323"/>
      <point x="543" y="1351"/>
      <point x="625" y="1351" type="curve" smooth="yes"/>
      <point x="801" y="1351"/>
      <point x="933" y="1217"/>
      <point x="933" y="1000" type="curve" smooth="yes"/>
      <point x="933" y="1002"/>
      <point x="933" y="993"/>
      <point x="933" y="996" type="curve"/>
      <point x="477" y="954"/>
      <point x="222" y="609"/>
      <point x="222" y="331" type="curve" smooth="yes"/>
      <point x="222" y="138"/>
      <point x="345" y="-21"/>
    </contour>
    <contour>
      <point x="622" y="163" type="curve" smooth="yes"/>
      <point x="590" y="163"/>
      <point x="574" y="206"/>
      <point x="574" y="269" type="curve" smooth="yes"/>
      <point x="574" y="437"/>
      <point x="691" y="751"/>
      <point x="922" y="821" type="curve"/>
      <point x="896" y="542"/>
      <point x="782" y="163"/>
    </contour>
  </outline>
</glyph>
<glyph name="radical" format="1">
  <advance width="1445"/>
  <unicode hex="221A"/>
  <outline>
    <contour>
      <point x="1065" y="1534" type="line"/>
      <point x="1088" y="1627"/>
      <point x="616" y="123"/>
      <point x="638" y="216" type="curve"/>
      <point x="555" y="463" type="line"/>
      <point x="377" y="984" type="line"/>
      <point x="5" y="868" type="line"/>
      <point x="39" y="742" type="line"/>
      <point x="179" y="786" type="line"/>
      <point x="532" y="-169" type="line"/>
      <point x="872" y="-169" type="line"/>
      <point x="1415" y="1534" type="line"/>
    </contour>
  </outline>
</glyph>
<glyph name="integral" format="1">
  <advance width="611"/>
  <unicode hex="222B"/>
  <outline>
    <contour>
      <point x="17" y="-551" type="curve" smooth="yes"/>
      <point x="274" y="-551"/>
      <point x="429" y="-342"/>
      <point x="429" y="-38" type="curve" smooth="yes"/>
      <point x="429" y="1214" type="line" smooth="yes"/>
      <point x="429" y="1374"/>
      <point x="462" y="1415"/>
      <point x="570" y="1415" type="curve" smooth="yes"/>
      <point x="588" y="1415"/>
      <point x="612" y="1412"/>
      <point x="636" y="1413" type="curve"/>
      <point x="636" y="1668" type="line"/>
      <point x="549" y="1689"/>
      <point x="479" y="1702"/>
      <point x="415" y="1702" type="curve" smooth="yes"/>
      <point x="168" y="1702"/>
      <point x="40" y="1504"/>
      <point x="40" y="1205" type="curve" smooth="yes"/>
      <point x="40" y="-46" type="line" smooth="yes"/>
      <point x="40" y="-190"/>
      <point x="-28" y="-188"/>
      <point x="-60" y="-188" type="curve" smooth="yes"/>
      <point x="-117" y="-188"/>
      <point x="-150" y="-180"/>
      <point x="-199" y="-176" type="curve"/>
      <point x="-199" y="-517" type="line"/>
      <point x="-113" y="-541"/>
      <point x="-42" y="-551"/>
    </contour>
  </outline>
</glyph>
<glyph name="approxequal" format="1">
  <advance width="1383"/>
  <unicode hex="2248"/>
  <outline>
    <contour>
      <point x="912" y="232" type="curve" smooth="yes"/>
      <point x="1146" y="232"/>
      <point x="1204" y="372"/>
      <point x="1237" y="565" type="curve"/>
      <point x="1048" y="625" type="line"/>
      <point x="999" y="481"/>
      <point x="949" y="469"/>
      <point x="900" y="469" type="curve" smooth="yes"/>
      <point x="846" y="469"/>
      <point x="792" y="493"/>
      <point x="730" y="534" type="curve" smooth="yes"/>
      <point x="614" y="605"/>
      <point x="541" y="644"/>
      <point x="432" y="644" type="curve" smooth="yes"/>
      <point x="230" y="644"/>
      <point x="124" y="515"/>
      <point x="99" y="303" type="curve"/>
      <point x="318" y="244" type="line"/>
      <point x="326" y="358"/>
      <point x="347" y="409"/>
      <point x="428" y="409" type="curve" smooth="yes"/>
      <point x="471" y="409"/>
      <point x="504" y="384"/>
      <point x="511" y="378" type="curve" smooth="yes"/>
      <point x="693" y="273"/>
      <point x="788" y="232"/>
    </contour>
    <contour>
      <point x="912" y="707" type="curve" smooth="yes"/>
      <point x="1146" y="707"/>
      <point x="1204" y="845"/>
      <point x="1237" y="1038" type="curve"/>
      <point x="1048" y="1099" type="line"/>
      <point x="999" y="955"/>
      <point x="949" y="942"/>
      <point x="900" y="942" type="curve" smooth="yes"/>
      <point x="846" y="942"/>
      <point x="792" y="967"/>
      <point x="730" y="1008" type="curve" smooth="yes"/>
      <point x="614" y="1080"/>
      <point x="541" y="1117"/>
      <point x="432" y="1117" type="curve" smooth="yes"/>
      <point x="230" y="1117"/>
      <point x="124" y="989"/>
      <point x="99" y="777" type="curve"/>
      <point x="318" y="719" type="line"/>
      <point x="326" y="830"/>
      <point x="347" y="883"/>
      <point x="426" y="883" type="curve" smooth="yes"/>
      <point x="470" y="883"/>
      <point x="504" y="859"/>
      <point x="511" y="851" type="curve" smooth="yes"/>
      <point x="693" y="746"/>
      <point x="788" y="707"/>
    </contour>
  </outline>
</glyph>
<glyph name="notequal" format="1">
  <advance width="1245"/>
  <unicode hex="2260"/>
  <outline>
    <contour>
      <point x="199" y="73" type="line"/>
      <point x="431" y="37" type="line"/>
      <point x="560" y="295" type="line"/>
      <point x="1128" y="295" type="line"/>
      <point x="1110" y="528" type="line"/>
      <point x="669" y="528" type="line"/>
      <point x="742" y="678" type="line"/>
      <point x="1128" y="678" type="line"/>
      <point x="1109" y="931" type="line"/>
      <point x="852" y="931" type="line"/>
      <point x="966" y="1133" type="line"/>
      <point x="732" y="1168" type="line"/>
      <point x="602" y="931" type="line"/>
      <point x="49" y="931" type="line"/>
      <point x="68" y="680" type="line"/>
      <point x="499" y="680" type="line"/>
      <point x="425" y="529" type="line"/>
      <point x="54" y="529" type="line"/>
      <point x="68" y="295" type="line"/>
      <point x="320" y="295" type="line"/>
    </contour>
  </outline>
</glyph>
<glyph name="lessequal" format="1">
  <advance width="1192"/>
  <unicode hex="2264"/>
  <outline>
    <contour>
      <point x="1058" y="370" type="line"/>
      <point x="1058" y="646" type="line"/>
      <point x="452" y="840" type="line"/>
      <point x="1066" y="1033" type="line"/>
      <point x="1066" y="1298" type="line"/>
      <point x="123" y="917" type="line"/>
      <point x="123" y="756" type="line"/>
    </contour>
    <contour>
      <point x="104" y="-13" type="line"/>
      <point x="1048" y="-13" type="line"/>
      <point x="1048" y="189" type="line"/>
      <point x="104" y="186" type="line"/>
    </contour>
  </outline>
</glyph>
<glyph name="caron.alt" format="1">
  <advance width="544"/>
  <outline>
    <contour>
      <point x="-89" y="1082" type="move" name="_caron.alt"/>
    </contour>
    <contour>
      <point x="274" y="1097" type="line"/>
      <point x="509" y="1097" type="line"/>
      <point x="568" y="1567" type="line"/>
      <point x="262" y="1567" type="line"/>
    </contour>
  </outline>
</glyph>
<glyph name="dotlessj" format="1">
  <advance width="768"/>
  <outline>
    <contour>
      <point x="31" y="-663" type="line"/>
      <point x="135" y="-606" type="line"/>
      <point x="426" y="-441"/>
      <point x="627" y="-371"/>
      <point x="627" y="-42" type="curve" smooth="yes"/>
      <point x="627" y="1082" type="line"/>
      <point x="168" y="1082" type="line"/>
      <point x="168" y="-9" type="line" smooth="yes"/>
      <point x="168" y="-137"/>
      <point x="137" y="-182"/>
      <point x="-41" y="-282" type="curve" smooth="yes"/>
      <point x="-151" y="-339" type="line"/>
    </contour>
  </outline>
</glyph>
